<svg width="71" height="71" viewBox="0 0 71 71" fill="none" xmlns="http://www.w3.org/2000/svg"><g clip-path="url(#a)"><path d="M35.5 0a7.1 7.1 0 1 0 0 14.2 7.107 7.107 0 0 0 7.1-7.1A7.1 7.1 0 0 0 35.5 0zm0 11.833a4.733 4.733 0 1 1 0-9.466 4.733 4.733 0 0 1 0 9.466zm4.734 3.551h-.28l-.249.124a9.433 9.433 0 0 1-8.409 0l-.25-.124h-.279a5.924 5.924 0 0 0-5.916 5.916v7.1a3.55 3.55 0 0 0 3.55 3.55h14.2a3.55 3.55 0 0 0 3.55-3.55v-7.1a5.924 5.924 0 0 0-5.917-5.916zm3.55 13.017c0 .653-.53 1.183-1.183 1.183H28.4c-.654 0-1.184-.53-1.184-1.183v-7.1a3.55 3.55 0 0 1 3.298-3.541 11.842 11.842 0 0 0 9.971 0 3.55 3.55 0 0 1 3.298 3.54v7.1zM60.35 39.05a7.1 7.1 0 1 0 7.1 7.1 7.107 7.107 0 0 0-7.1-7.1zm0 11.833a4.733 4.733 0 1 1 0-9.467 4.733 4.733 0 0 1 0 9.467zm4.734 3.551h-.28l-.25.118a9.434 9.434 0 0 1-8.408 0l-.25-.118h-.28A5.924 5.924 0 0 0 49.7 60.35v7.1A3.55 3.55 0 0 0 53.25 71h14.2A3.55 3.55 0 0 0 71 67.45v-7.1a5.924 5.924 0 0 0-5.916-5.916zm3.55 13.016c0 .654-.53 1.184-1.184 1.184h-14.2c-.653 0-1.183-.53-1.183-1.184v-7.1a3.55 3.55 0 0 1 3.298-3.54 11.842 11.842 0 0 0 9.97 0 3.55 3.55 0 0 1 3.299 3.54v7.1zM10.65 39.05a7.1 7.1 0 1 0 7.1 7.1 7.107 7.107 0 0 0-7.1-7.1zm0 11.833a4.733 4.733 0 1 1 0-9.467 4.733 4.733 0 0 1 0 9.467zm4.733 3.551h-.279l-.25.118a9.434 9.434 0 0 1-8.408 0l-.25-.118h-.28A5.924 5.924 0 0 0 0 60.35v7.1A3.55 3.55 0 0 0 3.55 71h14.2a3.55 3.55 0 0 0 3.55-3.55v-7.1a5.924 5.924 0 0 0-5.917-5.916zm3.55 13.016c0 .654-.53 1.184-1.183 1.184H3.55c-.653 0-1.183-.53-1.183-1.184v-7.1a3.55 3.55 0 0 1 3.298-3.54 11.842 11.842 0 0 0 9.97 0 3.55 3.55 0 0 1 3.298 3.54v7.1z" fill="#333"/><path d="M47.24 60.096l-.002-.004a1.183 1.183 0 0 0-1.552-.625 26.249 26.249 0 0 1-16.878 1.162l1.108-.326a1.184 1.184 0 1 0-.665-2.272l-4.734 1.389c-.017 0-.03.02-.047.026a1.11 1.11 0 0 0-.305.169c-.041.022-.08.047-.119.074a1.144 1.144 0 0 0-.29.403 1.185 1.185 0 0 0-.09.488c.03.16.069.319.119.474.007.016 0 .035.013.052l2.367 4.528a1.184 1.184 0 0 0 2.099-1.095l-.963-1.842a28.484 28.484 0 0 0 19.31-1.05c.602-.255.884-.95.63-1.551zm19.863-28.983a1.184 1.184 0 0 0-1.673 0l-1.675 1.675a28.357 28.357 0 0 0-17.142-23.43 1.183 1.183 0 0 0-.927 2.177 25.994 25.994 0 0 1 15.652 20.913l-1.335-1.335a1.183 1.183 0 0 0-1.673 1.673l3.55 3.55a1.183 1.183 0 0 0 1.675 0l3.55-3.55a1.183 1.183 0 0 0-.002-1.673zM26 10.247a1.096 1.096 0 0 0-.032-.205c0-.01-.013-.018-.017-.03-.005-.011 0-.02 0-.03a1.132 1.132 0 0 0-.112-.162 1.195 1.195 0 0 0-.134-.196 1.111 1.111 0 0 0-.231-.157 1.036 1.036 0 0 0-.133-.096l-4.733-2.162a1.183 1.183 0 0 0-.982 2.151l2.45 1.121A28.357 28.357 0 0 0 7.1 35.501a1.183 1.183 0 0 0 2.367 0 25.993 25.993 0 0 1 12.807-22.418l-.856 1.788a1.183 1.183 0 0 0 1.065 1.696c.455 0 .869-.262 1.065-.671l2.367-4.938c0-.012 0-.025.01-.037.03-.08.052-.165.063-.25.02-.064.036-.13.045-.196a1.176 1.176 0 0 0-.034-.228z" fill="#525C8C"/></g><defs><clipPath id="a"><path fill="#fff" d="M0 0h71v71H0z"/></clipPath></defs></svg>