<svg width="74" height="74" viewBox="0 0 74 74" fill="none" xmlns="http://www.w3.org/2000/svg"><g clip-path="url(#a)"><path d="M19.796 46.574a1.446 1.446 0 1 0-1.448-2.504 1.446 1.446 0 0 0 1.448 2.504z" fill="#525C8C"/><path d="M13.873 56.549l7.278 12.607c1.57 2.724 5.104 3.732 7.898 2.117a5.779 5.779 0 0 0 2.116-7.897l-4.336-7.511 3.755-2.168c.69-.4.928-1.284.529-1.975l-1.88-3.255 27.683-5.43c3.213-.175 5.138-3.688 3.515-6.497l-4.803-8.32 3.07-4.649c.3-.457.319-1.045.045-1.519l-2.89-5.006a1.448 1.448 0 0 0-1.34-.72l-5.56.333-5.332-9.236a4.298 4.298 0 0 0-3.701-2.168h-.055a4.298 4.298 0 0 0-3.65 1.999L17.333 31.306 5.059 38.393c-4.828 2.786-6.5 8.98-3.703 13.82 2.555 4.426 7.943 6.167 12.517 4.336zm14.789 8.273a2.889 2.889 0 0 1-1.06 3.948 2.894 2.894 0 0 1-3.947-1.058l-7.227-12.519 5.007-2.89 7.227 12.519zM25.383 53.36l-1.445-2.504 2.503-1.445 1.446 2.503-2.504 1.446zm28.412-34.097l1.998 3.46-1.781 2.698-3.443-5.964 3.226-.194zM38.632 8.84a1.414 1.414 0 0 1 1.252-.693c.247.002.862.08 1.233.722l16.81 29.118a1.445 1.445 0 0 1-1.215 2.166c-.198.005-.288.04-.793.135l-17.782-30.8c.373-.48.42-.527.495-.648zm-2.419 3.098L52.92 40.875l-25.215 4.946-7.667-13.28 16.175-20.604zM3.859 50.767a7.217 7.217 0 0 1-.97-3.605 7.254 7.254 0 0 1 3.615-6.266l11.265-6.504 7.227 12.517-11.265 6.504c-3.451 1.992-7.88.805-9.872-2.645z" fill="#333"/><path d="M15.318 47.49a1.446 1.446 0 0 0-1.974-.53l-2.504 1.446c-.69.398-1.575.16-1.974-.53a1.446 1.446 0 0 0-2.503 1.446 4.342 4.342 0 0 0 5.923 1.587l2.503-1.445c.691-.4.928-1.283.53-1.974zM71.852 8.346l-8.054 4.482a1.446 1.446 0 0 0 1.406 2.525l8.053-4.481a1.445 1.445 0 1 0-1.405-2.526zm-.845 14.969l-5.584-1.496a1.445 1.445 0 1 0-.748 2.792l5.585 1.496a1.445 1.445 0 1 0 .747-2.792zM56.974 3.095L55.476 8.68a1.446 1.446 0 0 0 2.793.748l1.497-5.584a1.445 1.445 0 1 0-2.792-.749z" fill="#525C8C"/></g><defs><clipPath id="a"><path fill="#fff" d="M0 0h74v74H0z"/></clipPath></defs></svg>