<svg width="68" height="68" viewBox="0 0 68 68" fill="none" xmlns="http://www.w3.org/2000/svg"><path d="M61.36 51.266a1.329 1.329 0 1 0-.002-2.658 1.329 1.329 0 0 0 .001 2.658z" fill="#525C8C"/><path d="M3.984 68h60.032A3.989 3.989 0 0 0 68 64.016V14.609c0-.733-.594-1.328-1.328-1.328h-9.297C57.375 5.958 51.417 0 44.094 0c-7.34 0-13.282 5.937-13.282 13.281H20.72c-.734 0-1.328.595-1.328 1.328v15.407H1.328C.595 30.016 0 30.61 0 31.344v32.672A3.989 3.989 0 0 0 3.984 68zm-1.328-3.984v-4.782H33.47v4.782a1.33 1.33 0 0 1-1.328 1.328H3.984a1.33 1.33 0 0 1-1.328-1.328zm61.36 1.328h-28.12a3.95 3.95 0 0 0 .229-1.328v-4.782h29.219v4.782a1.33 1.33 0 0 1-1.328 1.328zM44.094 2.656c5.858 0 10.625 4.766 10.625 10.625h-21.25c0-5.872 4.75-10.625 10.625-10.625zM22.047 15.937h8.765v6.11h-1.328a1.328 1.328 0 1 0 0 2.656h5.313a1.328 1.328 0 1 0 0-2.656h-1.328v-6.11h21.25v6.11H53.39a1.328 1.328 0 1 0 0 2.656h5.312a1.328 1.328 0 1 0 0-2.656h-1.328v-6.11h7.969v40.641H36.125V31.344c0-.734-.594-1.328-1.328-1.328h-12.75V15.938zm11.422 16.735v23.906H2.656V32.672H33.47z" fill="#333"/><path d="M10.094 40.64v2.657a7.967 7.967 0 0 0 7.969 7.969c4.394 0 7.968-3.575 7.968-7.97v-2.655a1.328 1.328 0 1 0 0-2.657h-2.656a1.328 1.328 0 1 0 0 2.657v2.656a5.312 5.312 0 1 1-10.625 0V40.64a1.328 1.328 0 1 0 0-2.657h-2.656a1.328 1.328 0 1 0 0 2.657zm51.266 5.313c.733 0 1.328-.594 1.328-1.328V34a1.328 1.328 0 1 0-2.657 0v10.625c0 .734.595 1.328 1.328 1.328z" fill="#525C8C"/></svg>