<svg width="70" height="70" viewBox="0 0 70 70" fill="none" xmlns="http://www.w3.org/2000/svg"><path d="M62.24 31.124h-2.158L40.34 12.64a5.82 5.82 0 1 0-10.678 0L9.918 31.123H7.76A7.763 7.763 0 0 0 0 38.884v18.781a7.764 7.764 0 0 0 7.76 7.76h54.48a7.764 7.764 0 0 0 7.76-7.76v-18.78a7.773 7.773 0 0 0-7.76-7.76zM35 7.625a2.716 2.716 0 1 1-2.716 2.716A2.73 2.73 0 0 1 35 7.625zm-3.384 7.435a5.813 5.813 0 0 0 6.768 0l17.15 16.064H14.45L31.616 15.06zm35.28 42.605a4.67 4.67 0 0 1-4.657 4.657H7.761a4.67 4.67 0 0 1-4.657-4.657v-18.78a4.67 4.67 0 0 1 4.657-4.657h54.478a4.67 4.67 0 0 1 4.657 4.657v18.78z" fill="#333"/><path d="M15.52 45.963h21.886a1.552 1.552 0 1 0 0-3.105H15.52a1.552 1.552 0 1 0 0 3.105zm38.959 4.657H15.52a1.552 1.552 0 1 0 0 3.103h38.958a1.552 1.552 0 1 0 0-3.104z" fill="#525C8C"/></svg>