<svg width="81" height="81" viewBox="0 0 81 81" fill="none" xmlns="http://www.w3.org/2000/svg"><path d="M71.463 37.535c-2.756-1.377-7.924-1.393-8.142-1.393a1.186 1.186 0 1 0 0 2.373c1.333 0 5.205.205 7.081 1.143a1.187 1.187 0 0 0 1.061-2.123z" fill="#525C8C"/><path d="M77.379 54.428l-4.9-1.4a.498.498 0 0 1-.36-.477v-1.635a8.919 8.919 0 0 0 1.135-.93 8.729 8.729 0 0 0 2.671-6.316v-2.257l.474-.947a7.57 7.57 0 0 0 .795-3.368v-6.114c0-.655-.531-1.187-1.186-1.187H64.59c-4.152 0-7.53 3.378-7.53 7.53v.07c0 .968.228 1.936.66 2.8l.608 1.216v1.938a9.258 9.258 0 0 0 3.806 7.486v1.714c0 .264 0 .374-.979.654l-2.391.683-6.917-2.515a1.185 1.185 0 0 0-.323-.909l-2.21-2.322v-3.898c.233-.192.464-.39.687-.6a13.926 13.926 0 0 0 4.387-10.123v-3.113a13.716 13.716 0 0 0 1.269-5.768V11.954c0-.655-.531-1.186-1.187-1.186H36.71c-6.25 0-11.336 5.085-11.336 11.335v2.538c0 1.996.427 3.935 1.269 5.767v2.679c0 4.435 1.972 8.431 5.075 11.066v3.99l-2.21 2.322c-.239.25-.349.582-.324.908l-7.3 2.654c-.53.193-1.02.453-1.467.769l-1.146-.573c3.412-1.486 4.493-3.575 4.545-3.678a1.186 1.186 0 0 0 0-1.062c-.856-1.71-.96-4.846-1.042-7.366a64.329 64.329 0 0 0-.104-2.337c-.405-5.69-4.732-9.983-10.065-9.983-5.333 0-9.66 4.292-10.064 9.983-.05.706-.076 1.499-.104 2.338-.083 2.519-.187 5.654-1.042 7.365a1.186 1.186 0 0 0 0 1.061c.052.104 1.13 2.189 4.55 3.676L2.76 55.812A4.967 4.967 0 0 0 0 60.278v8.766a1.187 1.187 0 0 0 2.373 0v-8.766c0-.999.555-1.896 1.448-2.343l3.965-1.983 1.38 1.311a4.978 4.978 0 0 0 3.438 1.375 4.98 4.98 0 0 0 3.44-1.375l1.379-1.31 1.292.646a6.249 6.249 0 0 0-.954 3.313v9.132a1.187 1.187 0 0 0 2.373 0v-9.132a3.9 3.9 0 0 1 2.56-3.654l7.697-2.799 3.204 4.806a2.446 2.446 0 0 0 2.045 1.094c.648 0 1.27-.256 1.734-.72l1.954-1.954v12.36a1.187 1.187 0 0 0 2.373 0v-12.36l1.955 1.954a2.444 2.444 0 0 0 1.978.708 2.446 2.446 0 0 0 1.801-1.081l3.204-4.807 7.697 2.8a3.9 3.9 0 0 1 2.56 3.653v9.132a1.187 1.187 0 0 0 2.373 0v-9.132c0-1.65-.656-3.197-1.755-4.341l.293-.084c.295-.084.699-.2 1.104-.398l3.03 3.029v10.926a1.187 1.187 0 0 0 2.372 0V58.118l3.009-3.009c.16.082.328.15.505.201l4.9 1.4a2.63 2.63 0 0 1 1.9 2.519v9.815a1.186 1.186 0 1 0 2.373 0V59.23a5.014 5.014 0 0 0-3.621-4.801zM7.612 52.332c-2.22-.799-3.333-1.863-3.808-2.445.324-.847.534-1.817.676-2.84a8.848 8.848 0 0 0 3.132 3.863v1.422zm6.797 3.211a2.618 2.618 0 0 1-3.609 0l-1.103-1.048c.186-.35.288-.745.288-1.16v-1.264a8.826 8.826 0 0 0 5.239 0v1.265c0 .414.102.81.288 1.159l-1.103 1.048zm-1.804-5.447a6.433 6.433 0 0 1-6.425-6.425 1.187 1.187 0 0 0-1.382-1.17l.01-.305c.027-.816.052-1.586.1-2.247.151-2.132 1.003-4.097 2.398-5.532a7.334 7.334 0 0 1 5.299-2.246c2.008 0 3.89.797 5.298 2.246 1.395 1.435 2.247 3.4 2.399 5.532.047.66.072 1.431.1 2.247l.006.212c-1.29-1.99-3.284-3.455-5.86-4.283-2.38-.764-4.427-.717-4.513-.715a1.19 1.19 0 0 0-.822.363l-2.14 2.22A1.186 1.186 0 1 0 8.78 41.64l1.781-1.847c1.534.075 6.47.649 8.39 4.875a6.41 6.41 0 0 1-6.347 5.428zm4.992 2.24V50.92a8.776 8.776 0 0 0 3.133-3.868c.142 1.022.352 1.99.675 2.835-.473.575-1.591 1.65-3.808 2.448zm11.418-19.25v-2.943c0-.179-.04-.355-.118-.516a11.381 11.381 0 0 1-1.15-4.986v-2.537c0-4.943 4.02-8.963 8.962-8.963h16.575v11.5c0 1.728-.387 3.405-1.15 4.986a1.183 1.183 0 0 0-.119.516v3.379c0 3.213-1.292 6.193-3.637 8.392a11.83 11.83 0 0 1-.911.77l-.02.016c-2.198 1.668-4.89 2.479-7.7 2.297-6.018-.39-10.732-5.621-10.732-11.91zm6.68 23.875c-.008.008-.027.028-.065.024a.076.076 0 0 1-.06-.036l-3.69-5.536 1.187-1.247 5.598 3.826-2.97 2.97zm4.82-4.579L34.09 47.99v-2.214a13.36 13.36 0 0 0 6.437 1.619c2.269 0 4.453-.543 6.413-1.572v2.167l-6.425 4.392zm4.946 4.567a.076.076 0 0 1-.06.036c-.04.005-.058-.015-.067-.023l-2.969-2.97 5.598-3.826 1.188 1.248-3.69 5.535zm21.666-1.001l-2.693-2.693c.047-.213.074-.447.074-.704v-.501a8.318 8.318 0 0 0 2.622.42c.9 0 1.78-.137 2.616-.396v.477c0 .237.03.469.086.692l-2.705 2.705zm4.474-7.666a6.377 6.377 0 0 1-4.672 1.811c-3.434-.103-6.228-3.127-6.228-6.741v-2.219c0-.184-.042-.366-.125-.53l-.733-1.466a3.908 3.908 0 0 1-.41-1.739v-.07a5.163 5.163 0 0 1 5.157-5.157h10.23v4.928c0 .796-.188 1.594-.544 2.306l-.6 1.198a1.186 1.186 0 0 0-.125.53v2.538c0 1.753-.693 3.39-1.95 4.611z" fill="#333"/><path d="M74.739 60.245c-.656 0-1.187.531-1.187 1.187v7.612a1.187 1.187 0 0 0 2.373 0v-7.612c0-.656-.531-1.187-1.186-1.187zm-68.478 1.57c-.655 0-1.186.53-1.186 1.186v6.044a1.187 1.187 0 0 0 2.373 0V63c0-.655-.531-1.186-1.187-1.186zm43.974-36.744c-4.488-4.487-13.877-3.63-17.706-3.052a2.436 2.436 0 0 0-2.081 2.427v2.733a1.186 1.186 0 1 0 2.373 0v-2.734c0-.04.026-.074.062-.08 1.53-.23 4.564-.586 7.708-.376 3.7.246 6.38 1.175 7.966 2.76a1.186 1.186 0 1 0 1.678-1.678zM26.56 62.784c-.655 0-1.186.531-1.186 1.187v5.074a1.187 1.187 0 0 0 2.373 0v-5.074c0-.655-.532-1.187-1.187-1.187zm27.91 0c-.655 0-1.186.531-1.186 1.187v5.074a1.186 1.186 0 1 0 2.373 0v-5.074c0-.655-.531-1.187-1.187-1.187z" fill="#525C8C"/></svg>