<svg width="20" height="20" viewBox="0 0 20 20" fill="none" xmlns="http://www.w3.org/2000/svg"><g clip-path="url(#a)"><path d="M19.703 11.755l-2.281-4.887.985.283a.407.407 0 1 0 .224-.783l-6.847-1.965a1.785 1.785 0 0 0-3.342-.96L1.594 1.48a.407.407 0 0 0-.225.783l1.351.388L.273 7.892A.408.408 0 0 0 0 8.276a3.266 3.266 0 0 0 5.581 2.306 3.228 3.228 0 0 0 .975-2.306.407.407 0 0 0-.297-.392L3.984 3.012l4.232 1.215-.002.088a1.789 1.789 0 0 0 1.379 1.738v8.07H8.468c-.898 0-1.646.721-1.646 1.62v.237a1.642 1.642 0 0 0-1.303 1.596v.57a.43.43 0 0 0 .423.418h8.116a.43.43 0 0 0 .424-.417v-.57a1.642 1.642 0 0 0-1.304-1.597v-.237c0-.899-.748-1.62-1.646-1.62h-1.124v-8.07a1.79 1.79 0 0 0 1.15-.867l4.612 1.323-2.453 5.253a.407.407 0 0 0-.273.384 3.266 3.266 0 0 0 5.581 2.306A3.23 3.23 0 0 0 20 12.146a.407.407 0 0 0-.297-.391zM3.268 3.385l2.084 4.464H1.183l2.085-4.465zm0 7.324a2.436 2.436 0 0 1-2.42-2.045h4.857a2.472 2.472 0 0 1-2.437 2.045zm10.399 6.867v.173H6.333v-.172c0-.45.382-.806.831-.806h5.672c.449 0 .83.356.83.805zm-1.304-1.833v.214H7.637v-.214c0-.45.382-.805.831-.805h3.064c.45 0 .831.356.831.805zM10 5.286a.972.972 0 1 1 .944-.744.41.41 0 0 0-.023.08.973.973 0 0 1-.92.664zm8.797 6.434h-4.17l2.085-4.465 2.085 4.465zm-2.085 2.86a2.436 2.436 0 0 1-2.419-2.046h4.856a2.472 2.472 0 0 1-2.437 2.046z" fill="#525C8C"/></g><defs><clipPath id="a"><path fill="#fff" d="M0 0h20v20H0z"/></clipPath></defs></svg>