<svg width="84" height="84" viewBox="0 0 84 84" fill="none" xmlns="http://www.w3.org/2000/svg"><g clip-path="url(#a)"><path d="M25.593 60.703a1.641 1.641 0 1 0 .002 3.283 1.641 1.641 0 0 0-.002-3.283z" fill="#333"/><path d="M73.851 31.174l9.668-9.668a1.64 1.64 0 0 0-.676-2.728L59.3 11.512A16.372 16.372 0 0 0 43.64.002a16.411 16.411 0 0 0-15.219 10.274L1.151 18.78a1.64 1.64 0 0 0-.67 2.727l9.921 9.922-6.257 10.43a1.64 1.64 0 0 0 .888 2.401l9.076 3.025v25.233a1.64 1.64 0 0 0 1.065 1.537c5.55 2.08 26.17 9.814 26.28 9.853.326.115.693.13 1.05.015l.014-.004 29.532-9.844a1.64 1.64 0 0 0 1.121-1.557V46.61l9.68-3.042a1.64 1.64 0 0 0 .668-2.725l-9.668-9.668zM60.047 16.408c0-.417-.018-.833-.05-1.247l19.277 5.95-8.186 8.186-13.376-4.458a16.454 16.454 0 0 0 2.334-8.43zm-28.822-4.27A13.13 13.13 0 0 1 43.64 3.283a13.098 13.098 0 0 1 13.125 13.125c0 3.047-1.011 5.904-2.925 8.261a13.078 13.078 0 0 1-10.2 4.864c-4.297 0-8.329-2.11-10.784-5.644a13.029 13.029 0 0 1-2.34-7.48c0-1.466.238-2.903.71-4.271zM4.72 21.104l22.69-7.075a16.536 16.536 0 0 0-.175 2.379c0 2.642.626 5.2 1.818 7.509l-16.14 5.38-8.193-8.193zm3.29 20.689l5.187-8.647 26.343 8.781-5.188 8.647L8.01 41.793zm32.348 38.2L17.39 71.382V48.378c18.072 5.992 17.19 5.809 17.693 5.809a1.64 1.64 0 0 0 1.407-.797l3.869-6.45v33.054zm1.64-40.705l-24.342-8.114 13.255-4.418a16.417 16.417 0 0 0 12.728 6.059c4.584 0 8.893-1.887 11.992-5.211l10.71 3.57L42 39.288zM69.89 71.335l-26.25 8.75v-34.39l5.816 7.269a1.64 1.64 0 0 0 1.773.54L69.89 47.64v23.695zM51.317 50.037l-6.566-8.207 26.337-8.78 8.197 8.198-27.968 8.79z" fill="#333"/><path d="M36.014 64.346l-3.65-1.368a1.64 1.64 0 0 0-1.151 3.072l3.648 1.368a1.64 1.64 0 0 0 1.153-3.072zm-.001 7.007l-9.843-3.691a1.641 1.641 0 0 0-1.153 3.072l9.844 3.691a1.637 1.637 0 0 0 2.113-.96 1.64 1.64 0 0 0-.96-2.112z" fill="#333"/><path d="M51.926 10.324a1.64 1.64 0 0 0-2.32 0l-8.684 8.684-2.121-2.121a1.64 1.64 0 0 0-2.32 2.32l3.281 3.281a1.64 1.64 0 0 0 2.32 0l9.844-9.843c.64-.641.64-1.68 0-2.32z" fill="#219653"/></g><defs><clipPath id="a"><path fill="#fff" d="M0 0h84v84H0z"/></clipPath></defs></svg>