<svg width="35" height="35" viewBox="0 0 35 35" fill="none" xmlns="http://www.w3.org/2000/svg"><g clip-path="url(#a)"><path d="M34.48 20.57l-3.992-8.55 1.723.494a.712.712 0 1 0 .394-1.37l-11.983-3.44a3.125 3.125 0 0 0-5.85-1.679L2.79 2.59a.713.713 0 0 0-.393 1.37l2.365.68-4.284 9.17a.713.713 0 0 0-.478.673 5.716 5.716 0 0 0 9.767 4.035 5.65 5.65 0 0 0 1.705-4.035c0-.32-.212-.6-.52-.686l-3.98-8.526 7.406 2.125a3.13 3.13 0 0 0 2.409 3.197v14.122H14.82c-1.572 0-2.88 1.262-2.88 2.834v.414a2.874 2.874 0 0 0-2.281 2.795v.998a.753.753 0 0 0 .74.73h14.203a.753.753 0 0 0 .742-.73v-.998a2.874 2.874 0 0 0-2.282-2.795v-.413c0-1.573-1.308-2.835-2.88-2.835h-1.968V10.593a3.137 3.137 0 0 0 2.014-1.518l8.07 2.316-4.292 9.193a.713.713 0 0 0-.477.672 5.716 5.716 0 0 0 9.766 4.036A5.651 5.651 0 0 0 35 21.256a.713.713 0 0 0-.52-.685zM5.718 5.923l3.648 7.814H2.07l3.648-7.814zm0 12.82a4.263 4.263 0 0 1-4.233-3.58h8.499a4.325 4.325 0 0 1-4.266 3.58zM23.917 30.76v.302H11.083v-.302c0-.786.669-1.409 1.455-1.409h9.924c.786 0 1.455.623 1.455 1.409zm-2.282-3.209v.374h-8.27v-.373c0-.787.668-1.41 1.454-1.41h5.362c.786 0 1.454.623 1.454 1.41zM17.5 9.25a1.7 1.7 0 1 1 1.652-1.3.715.715 0 0 0-.04.138A1.702 1.702 0 0 1 17.5 9.251zm15.394 11.26h-7.296l3.648-7.814 3.648 7.813zm-3.648 5.004a4.263 4.263 0 0 1-4.233-3.579h8.498a4.325 4.325 0 0 1-4.265 3.58z" fill="#333"/></g><defs><clipPath id="a"><path fill="#fff" d="M0 0h35v35H0z"/></clipPath></defs></svg>