<svg width="17" height="17" viewBox="0 0 17 17" fill="none" xmlns="http://www.w3.org/2000/svg"><path d="M15.56 3.77l-.254.081-1.355.12-.382.612-.278-.088-1.078-.972-.156-.506-.21-.539-.677-.607-.8-.157-.018.366.783.764.383.451-.43.226-.35-.104-.526-.219.018-.424-.69-.283-.229.996-.695.157.07.556.904.174.157-.888.747.11.348.204h.557l.381.764 1.012 1.026-.074.4-.816-.105-1.409.712-1.015 1.217-.132.539h-.364l-.678-.313-.66.313.164.695.287-.33.505-.016-.036.624.418.123.417.468.682-.191.778.122.903.243.452.054.765.868 1.477.869-.955 1.824-1.008.469-.383 1.042-1.459.975-.155.561C14.226 15.855 17 12.505 17 8.5a8.463 8.463 0 0 0-1.44-4.728z" fill="#fff"/><path d="M9.478 12.942l-.62-1.148.569-1.184-.568-.17-.638-.64-1.414-.317-.469-.982v.583h-.206L4.913 7.432V6.076l-.892-1.452-1.418.253h-.955l-.48-.315.612-.486-.611.141A8.447 8.447 0 0 0 .002 8.501 8.5 8.5 0 0 0 8.501 17a8.9 8.9 0 0 0 1.066-.074l-.089-1.03s.39-1.53.39-1.581c0-.053-.39-1.373-.39-1.373zM3.16 2.74l1.51-.21.696-.381.783.225 1.25-.069.43-.674.625.103 1.517-.142.419-.461.59-.394.834.126.304-.046A8.468 8.468 0 0 0 1.946 3.09h.004l1.21-.35zM8.86.846l.867-.478.558.322-.807.615-.77.077-.348-.225.5-.31zm-2.572.07l.384.16.501-.16.273.474-1.158.304-.556-.326s.544-.35.556-.452z" fill="#fff"/></svg>