<svg width="33" height="33" viewBox="0 0 33 33" fill="none" xmlns="http://www.w3.org/2000/svg"><path d="M16.5 33C25.613 33 33 25.613 33 16.5S25.613 0 16.5 0 0 7.387 0 16.5 7.387 33 16.5 33z" fill="#3B5998"/><path d="M20.649 17.146h-2.945v10.787h-4.46V17.145h-2.122v-3.79h2.122v-2.454c0-1.754.833-4.5 4.5-4.5l3.304.013v3.68h-2.397c-.393 0-.946.196-.946 1.033v2.23h3.333l-.39 3.788z" fill="#BEC7D1" style="mix-blend-mode:darken"/><path d="M20.649 17.146h-2.945v10.787h-4.46V17.145h-2.122v-3.79h2.122v-2.454c0-1.754.833-4.5 4.5-4.5l3.304.013v3.68h-2.397c-.393 0-.946.196-.946 1.033v2.23h3.333l-.39 3.788z" fill="#fff"/></svg>