<svg width="26" height="26" viewBox="0 0 26 26" fill="none" xmlns="http://www.w3.org/2000/svg"><path d="M13 26c7.18 0 13-5.82 13-13S20.18 0 13 0 0 5.82 0 13s5.82 13 13 13z" fill="#3B5998"/><path d="M16.268 13.51h-2.32v8.498h-3.514v-8.499H8.763v-2.986h1.671V8.59c0-1.382.657-3.547 3.546-3.547l2.603.011v2.9h-1.888c-.31 0-.746.154-.746.814v1.757h2.627l-.308 2.984z" fill="#BEC7D1" style="mix-blend-mode:darken"/><path d="M16.268 13.51h-2.32v8.498h-3.514v-8.499H8.763v-2.986h1.671V8.59c0-1.382.657-3.547 3.546-3.547l2.603.011v2.9h-1.888c-.31 0-.746.154-.746.814v1.757h2.627l-.308 2.984z" fill="#fff"/></svg>