<svg width="62" height="67" viewBox="0 0 62 67" fill="none" xmlns="http://www.w3.org/2000/svg"><path d="M59.71 15.143L33.381.557a4.39 4.39 0 0 0-4.279 0L2.776 15.143a4.416 4.416 0 0 0-2.275 3.862v28.99c0 1.604.872 3.084 2.275 3.862l26.327 14.586a4.4 4.4 0 0 0 2.14.557 4.41 4.41 0 0 0 2.14-.557l26.326-14.586a4.416 4.416 0 0 0 2.275-3.862v-28.99a4.416 4.416 0 0 0-2.275-3.862zM30.855 3.72a.792.792 0 0 1 .773 0l10.513 5.825-25.355 14.048-10.759-6.117L30.856 3.72zm-1.421 58.772L4.529 48.693a.798.798 0 0 1-.411-.698V20.55l11.75 6.68.008.005 13.559 7.708v27.549zM20.47 25.687l25.403-14.075 10.924 6.053-25.544 14.152-10.783-6.13zm37.897 22.308c0 .29-.158.558-.412.698l-24.905 13.8V34.955L58.368 20.93v27.066z" fill="#333"/><path d="M18.55 33.228L8.969 27.95a1.81 1.81 0 0 0-2.68 1.584v7.644c0 .66.358 1.266.936 1.584l9.582 5.278a1.809 1.809 0 0 0 2.68-1.584v-7.645c0-.66-.358-1.266-.935-1.584zm-2.68 6.168l-5.966-3.285v-3.516l5.966 3.286v3.515zm10.224 12.952l-4.79-2.639a1.809 1.809 0 0 0-1.746 3.168l4.791 2.639a1.809 1.809 0 0 0 1.745-3.168z" fill="#219653"/></svg>