<svg width="67" height="67" viewBox="0 0 67 67" fill="none" xmlns="http://www.w3.org/2000/svg"><g clip-path="url(#a)"><path d="M54.097 20.216L35.048 9.662a3.177 3.177 0 0 0-3.096 0L12.903 20.217a3.195 3.195 0 0 0-1.646 2.794v20.976c0 1.16.63 2.232 1.646 2.794l19.05 10.554a3.188 3.188 0 0 0 1.547.403 3.19 3.19 0 0 0 1.548-.403L54.097 46.78a3.196 3.196 0 0 0 1.646-2.794V23.011c0-1.161-.63-2.232-1.646-2.794zM33.22 11.951a.573.573 0 0 1 .56 0l7.606 4.215L23.041 26.33l-7.785-4.426 17.964-9.953zm-1.028 42.524l-18.02-9.984a.577.577 0 0 1-.298-.505V24.128l8.501 4.834a.198.198 0 0 1 .007.003l9.81 5.577v19.933zm-6.486-26.63l18.38-10.183 7.904 4.379-18.482 10.24-7.802-4.436zm27.42 16.141c0 .21-.114.404-.298.505l-18.02 9.984V34.552l18.318-10.149v19.583z" fill="#333"/><path d="M24.317 33.3l-6.934-3.818a1.31 1.31 0 0 0-1.94 1.146v5.532c0 .477.26.916.678 1.146l6.933 3.818a1.31 1.31 0 0 0 1.94-1.146v-5.531c0-.477-.26-.916-.677-1.146zm-1.94 4.464l-4.316-2.377v-2.544l4.316 2.377v2.544zm7.398 9.37l-3.467-1.909a1.308 1.308 0 1 0-1.262 2.292l3.466 1.91a1.309 1.309 0 0 0 1.262-2.292z" fill="#333"/><path d="M60.883 14.204l2.414-2.414a1.309 1.309 0 0 0-.925-2.233h-6.498c-.723 0-1.309.585-1.309 1.308v6.499a1.309 1.309 0 0 0 2.234.925l2.204-2.205c8.289 12.119 6.806 28.776-3.669 39.25-9.01 9.01-22.389 11.57-34.085 6.52a1.308 1.308 0 1 0-1.037 2.403A33.403 33.403 0 0 0 33.472 67c2.019 0 4.048-.182 6.064-.55a33.303 33.303 0 0 0 17.648-9.265 33.475 33.475 0 0 0 9.734-21.399 33.49 33.49 0 0 0-6.035-21.582zm-3.7 0v-2.03h2.03l-2.03 2.03zM17.484 59.908l-.051-.031a1.308 1.308 0 1 0-1.361 2.235l.05.03a1.308 1.308 0 0 0 1.36-2.235zm33.623-54.91l-.065-.04a1.308 1.308 0 1 0-1.371 2.229l.065.04a1.308 1.308 0 0 0 1.371-2.229zm-4.393-2.286A33.465 33.465 0 0 0 27.424.557a33.306 33.306 0 0 0-17.61 9.258A33.474 33.474 0 0 0 .083 31.214a33.491 33.491 0 0 0 6.034 21.582L3.702 55.21a1.309 1.309 0 0 0 .925 2.234h6.499c.722 0 1.308-.586 1.308-1.309v-6.498a1.308 1.308 0 0 0-2.233-.925l-2.205 2.204c-8.288-12.118-6.806-28.775 3.67-39.25C20.651 2.679 34.003.108 45.682 5.117a1.309 1.309 0 0 0 1.031-2.405zM9.817 52.796v2.031h-2.03l2.03-2.031z" fill="#3D4D9B"/></g><defs><clipPath id="a"><path fill="#fff" d="M0 0h67v67H0z"/></clipPath></defs></svg>