<svg width="33" height="33" viewBox="0 0 33 33" fill="none" xmlns="http://www.w3.org/2000/svg"><path d="M32.834 15.373h-1.583V8.089a3.17 3.17 0 0 0-3.166-3.166H25.94L23.746.977A1.9 1.9 0 0 0 21.162.24L12.74 4.923H3.332A3.17 3.17 0 0 0 .166 8.089v21.744A3.17 3.17 0 0 0 3.332 33h24.753a3.17 3.17 0 0 0 3.166-3.167v-6.385h1.583v-8.075zm-4.75-9.184c.976 0 1.773.741 1.88 1.69h-2.38l-.94-1.69h1.44zm-6.306-4.843a.645.645 0 0 1 .86.246l3.496 6.286H10.032l11.746-6.532zm8.207 28.487c0 1.048-.853 1.9-1.9 1.9H3.331c-1.047 0-1.9-.852-1.9-1.9V8.09c0-1.047.853-1.9 1.9-1.9h7.13L7.425 7.88H3.728a.633.633 0 1 0 0 1.266h26.257v6.228h-4.632a3.906 3.906 0 0 0-3.901 3.902v.272c0 2.15 1.75 3.901 3.901 3.901h4.631v6.385zm1.583-7.652h-6.215a2.637 2.637 0 0 1-2.635-2.635v-.272a2.637 2.637 0 0 1 2.635-2.635h6.215v5.542zm-4.275-2.719a1.398 1.398 0 1 1-2.796 0 1.398 1.398 0 0 1 2.796 0z" fill="#333"/></svg>