<svg width="33" height="33" viewBox="0 0 33 33" fill="none" xmlns="http://www.w3.org/2000/svg"><path d="M16.5 33C25.613 33 33 25.613 33 16.5S25.613 0 16.5 0 0 7.387 0 16.5 7.387 33 16.5 33z" fill="#2BA5E1"/><path d="M7.218 15.975l3.83 1.432 1.482 4.776a.45.45 0 0 0 .716.215l2.134-1.743a.636.636 0 0 1 .776-.022l3.85 2.8a.45.45 0 0 0 .707-.273l2.82-13.591a.452.452 0 0 0-.604-.514L7.214 15.129c-.388.15-.385.7.004.846zm5.073.67l7.483-4.618c.135-.083.273.1.158.206l-6.176 5.752a1.283 1.283 0 0 0-.397.768l-.21 1.562c-.028.209-.32.23-.378.027l-.81-2.848a.756.756 0 0 1 .33-.85z" fill="#BEC7D1" style="mix-blend-mode:darken"/><path d="M7.218 15.975l3.83 1.432 1.482 4.776a.45.45 0 0 0 .716.215l2.134-1.743a.636.636 0 0 1 .776-.022l3.85 2.8a.45.45 0 0 0 .707-.273l2.82-13.591a.452.452 0 0 0-.604-.514L7.214 15.129c-.388.15-.385.7.004.846zm5.073.67l7.483-4.618c.135-.083.273.1.158.206l-6.176 5.752a1.283 1.283 0 0 0-.397.768l-.21 1.562c-.028.209-.32.23-.378.027l-.81-2.848a.756.756 0 0 1 .33-.85z" fill="#fff"/></svg>