<svg width="78" height="78" viewBox="0 0 78 78" fill="none" xmlns="http://www.w3.org/2000/svg"><path d="M48.595.77l-1.76 1.76 1.609 1.61h-20.65v2.49h20.65l-1.61 1.61 1.76 1.76 4.616-4.614L48.595.77zm2.855 12.085H30.8l1.61-1.61-1.76-1.76-4.616 4.616 4.615 4.615 1.76-1.76-1.61-1.61h20.65v-2.49z" fill="#333"/><path d="M53.394 61.856l-8.17-1.487v-.645c3.056-1.774 5.293-4.8 5.99-8.378a4.988 4.988 0 0 0 3.97-4.877V34.173a7.785 7.785 0 0 0-1.051-3.888H78l-2.08-7.276a6.253 6.253 0 0 0-4.962-4.43l-3.324-.555v-.875a7.385 7.385 0 0 0 2.49-5.539V7.875c0-4.12-3.35-7.47-7.47-7.47-4.12 0-7.47 3.35-7.47 7.47v3.735c0 2.133.9 4.118 2.49 5.539v.875l-3.325.554a6.251 6.251 0 0 0-4.961 4.431l-.776 2.713a15.209 15.209 0 0 0-10.467-4.152 15.229 15.229 0 0 0-9.085 3.01l-.448-1.571a6.253 6.253 0 0 0-4.962-4.43l-3.325-.555v-.875a7.385 7.385 0 0 0 2.49-5.539V7.875c0-4.12-3.35-7.47-7.47-7.47-4.12 0-7.47 3.35-7.47 7.47v3.735c0 2.133.9 4.118 2.49 5.539v.875l-3.323.555A6.25 6.25 0 0 0 2.08 23.01L0 30.285h24.337a15.213 15.213 0 0 0-1.522 6.614v9.57c0 2.4 1.707 4.409 3.97 4.877.699 3.578 2.935 6.606 5.99 8.379v.644l-8.17 1.486a8.68 8.68 0 0 0-6.788 6.07l-2.9 9.669h48.166l-2.9-9.669a8.677 8.677 0 0 0-6.789-6.07zM51.45 48.613v-4.288a2.482 2.482 0 0 1 1.245 2.144c0 .918-.505 1.712-1.245 2.144zm.332-24.92a3.753 3.753 0 0 1 2.977-2.659l5.405-.898v-4.193l-.494-.374c-1.268-.96-1.995-2.403-1.995-3.959V7.875a4.985 4.985 0 0 1 4.98-4.98 4.985 4.985 0 0 1 4.98 4.98v3.735c0 1.556-.728 3-1.996 3.959l-.495.372v4.193l5.406.9a3.751 3.751 0 0 1 2.978 2.659l1.17 4.102H51.89a7.8 7.8 0 0 0-1.093-.65l.986-3.453zm-48.48 4.1l1.171-4.1a3.753 3.753 0 0 1 2.977-2.659l5.406-.898v-4.193l-.495-.374c-1.268-.96-1.995-2.403-1.995-3.959V7.875a4.985 4.985 0 0 1 4.98-4.98 4.985 4.985 0 0 1 4.98 4.98v3.735c0 1.556-.728 3-1.996 3.959l-.494.372v4.193l5.405.9a3.75 3.75 0 0 1 2.978 2.659l.777 2.718c-.412.438-.796.9-1.154 1.382H3.302zm23.248 20.82a2.482 2.482 0 0 1-1.245-2.144c0-.917.505-1.712 1.245-2.144v4.288zm0-8.369v1.422c-.443.116-.859.29-1.245.516v-5.283c0-7.079 5.76-12.84 12.84-12.84 3.428 0 6.654 1.337 9.08 3.762l1.097 1.1.335.081a5.32 5.32 0 0 1 4.038 5.17v8.01a4.893 4.893 0 0 0-1.245-.516v-1.422h-3.948a10.829 10.829 0 0 1-8.622-4.309l-.99-1.322-2.473 2.475a10.712 10.712 0 0 1-7.622 3.156H26.55zm2.49 8.715v-6.282a13.178 13.178 0 0 0 8.137-3.828l.485-.484a13.336 13.336 0 0 0 9.84 4.37h1.458v6.224c0 5.492-4.468 9.96-9.96 9.96-5.492 0-9.96-4.468-9.96-9.96zm6.33 11.907a12.397 12.397 0 0 0 7.26 0L39 63.588l-3.63-2.722zm1.735 4.412l-2.54 2.54-1.65-4.944.794-.143 3.396 2.547zm7.186-2.547l.792.145-1.648 4.943-2.541-2.54 3.397-2.548zM18.264 75.104l1.94-6.463a6.194 6.194 0 0 1 4.849-4.335l5.39-.98 3.034 9.103L39 66.904l5.524 5.524 3.034-9.103 5.39.98a6.2 6.2 0 0 1 4.85 4.335l1.938 6.464H18.264zm55.595-4.98a3.74 3.74 0 0 0-3.735 3.735 3.74 3.74 0 0 0 3.735 3.735 3.74 3.74 0 0 0 3.735-3.735 3.74 3.74 0 0 0-3.735-3.735zm0 4.98a1.246 1.246 0 0 1 0-2.49 1.246 1.246 0 0 1 0 2.49zM4.14 70.124a3.74 3.74 0 0 0-3.735 3.735 3.74 3.74 0 0 0 3.735 3.735 3.74 3.74 0 0 0 3.735-3.735 3.74 3.74 0 0 0-3.735-3.735zm0 4.98a1.246 1.246 0 0 1 0-2.49 1.246 1.246 0 0 1 0 2.49zm1.245-9.96h-2.49v2.49h2.49v-2.49zm0-4.98h-2.49v2.49h2.49v-2.49zm0-4.979h-2.49v2.49h2.49v-2.49zm69.719 9.959h-2.49v2.49h2.49v-2.49zm0-4.98h-2.49v2.49h2.49v-2.49zm0-4.979h-2.49v2.49h2.49v-2.49z" fill="#333"/></svg>