<svg width="13" height="15" viewBox="0 0 13 15" fill="none" xmlns="http://www.w3.org/2000/svg"><path d="M6.5 7.336c1.668 0 3.02-1.642 3.02-3.668C9.52 1.642 9.076 0 6.5 0S3.48 1.642 3.48 3.668c0 2.026 1.352 3.668 3.02 3.668zM.796 12.937c0-.124 0-.035 0 0zm11.408.096c.001-.034 0-.234 0 0zm-.007-.244c-.056-3.53-.517-4.535-4.043-5.172 0 0-.497.633-1.654.633s-1.654-.633-1.654-.633C1.358 8.247.87 9.237.805 12.674c-.006.28-.008.295-.009.263v.37S1.636 15 6.5 15s5.703-1.693 5.703-1.693v-.274a2.199 2.199 0 0 1-.006-.244z" fill="#525C8C"/></svg>