<svg width="33" height="33" viewBox="0 0 33 33" fill="none" xmlns="http://www.w3.org/2000/svg"><path d="M16.5 33C25.613 33 33 25.613 33 16.5S25.613 0 16.5 0 0 7.387 0 16.5 7.387 33 16.5 33z" fill="#7D3DAF"/><path d="M25.811 11.794l-.006-.023c-.463-1.888-2.55-3.914-4.468-4.336l-.022-.004a24.63 24.63 0 0 0-9.347 0l-.023.004c-1.917.422-4.005 2.448-4.468 4.336l-.006.023a18.6 18.6 0 0 0 0 7.947l.006.023c.444 1.808 2.376 3.74 4.222 4.272v2.108c0 .763.922 1.138 1.446.587l2.118-2.22a24.477 24.477 0 0 0 6.052-.406l.021-.005c1.918-.421 4.006-2.447 4.47-4.335l.005-.024a18.6 18.6 0 0 0 0-7.947zm-1.676 7.565c-.309 1.232-1.894 2.763-3.154 3.046-1.65.316-3.312.451-4.972.405a.118.118 0 0 0-.088.036l-1.546 1.6-1.645 1.702a.192.192 0 0 1-.331-.134v-3.491a.12.12 0 0 0-.098-.118c-1.26-.283-2.845-1.814-3.154-3.046a16.879 16.879 0 0 1 0-7.183c.31-1.232 1.894-2.763 3.154-3.046a22.94 22.94 0 0 1 8.68 0c1.26.283 2.845 1.814 3.154 3.046.516 2.383.516 4.8 0 7.183z" fill="#BEC7D1" style="mix-blend-mode:darken"/><path d="M25.811 11.794l-.006-.023c-.463-1.888-2.55-3.914-4.468-4.336l-.022-.004a24.63 24.63 0 0 0-9.347 0l-.023.004c-1.917.422-4.005 2.448-4.468 4.336l-.006.023a18.6 18.6 0 0 0 0 7.947l.006.023c.444 1.808 2.376 3.74 4.222 4.272v2.108c0 .763.922 1.138 1.446.587l2.118-2.22a24.477 24.477 0 0 0 6.052-.406l.021-.005c1.918-.421 4.006-2.447 4.47-4.335l.005-.024a18.6 18.6 0 0 0 0-7.947zm-1.676 7.565c-.309 1.232-1.894 2.763-3.154 3.046-1.65.316-3.312.451-4.972.405a.118.118 0 0 0-.088.036l-1.546 1.6-1.645 1.702a.192.192 0 0 1-.331-.134v-3.491a.12.12 0 0 0-.098-.118c-1.26-.283-2.845-1.814-3.154-3.046a16.879 16.879 0 0 1 0-7.183c.31-1.232 1.894-2.763 3.154-3.046a22.94 22.94 0 0 1 8.68 0c1.26.283 2.845 1.814 3.154 3.046.516 2.383.516 4.8 0 7.183z" fill="#fff"/><path d="M19.381 20.97c-.193-.059-.378-.098-.55-.17-1.775-.743-3.41-1.702-4.704-3.171-.737-.836-1.313-1.78-1.8-2.778-.231-.473-.426-.965-.624-1.454-.181-.446.085-.906.366-1.242.263-.315.602-.557.969-.734.287-.14.569-.06.778.186.452.529.868 1.085 1.204 1.699.207.377.15.839-.225 1.095-.09.063-.174.136-.259.207a.851.851 0 0 0-.195.207.573.573 0 0 0-.038.5c.462 1.281 1.242 2.278 2.52 2.814.205.086.41.186.646.158.395-.046.523-.483.8-.711.27-.223.615-.226.907-.04.29.186.573.385.854.587.275.198.55.392.804.617.244.218.329.502.191.797-.252.54-.619.988-1.147 1.274-.15.081-.328.107-.497.16.169-.053-.193-.06 0 0zm-2.735-10.166c2.323.066 4.231 1.62 4.64 3.936.07.395.095.798.126 1.199.013.168-.082.328-.262.33-.186.003-.27-.154-.282-.323-.024-.333-.04-.668-.086-.998-.24-1.746-1.62-3.19-3.343-3.5-.26-.046-.525-.058-.787-.086-.166-.017-.384-.028-.42-.236-.031-.174.115-.313.28-.322.044-.002.09 0 .134 0-.045 0 2.323.066 0 0z" fill="#BEC7D1" style="mix-blend-mode:darken"/><path d="M19.381 20.97c-.193-.059-.378-.098-.55-.17-1.775-.743-3.41-1.702-4.704-3.171-.737-.836-1.313-1.78-1.8-2.778-.231-.473-.426-.965-.624-1.454-.181-.446.085-.906.366-1.242.263-.315.602-.557.969-.734.287-.14.569-.06.778.186.452.529.868 1.085 1.204 1.699.207.377.15.839-.225 1.095-.09.063-.174.136-.259.207a.851.851 0 0 0-.195.207.573.573 0 0 0-.038.5c.462 1.281 1.242 2.278 2.52 2.814.205.086.41.186.646.158.395-.046.523-.483.8-.711.27-.223.615-.226.907-.04.29.186.573.385.854.587.275.198.55.392.804.617.244.218.329.502.191.797-.252.54-.619.988-1.147 1.274-.15.081-.328.107-.497.16.169-.053-.193-.06 0 0zm-2.735-10.166c2.323.066 4.231 1.62 4.64 3.936.07.395.095.798.126 1.199.013.168-.082.328-.262.33-.186.003-.27-.154-.282-.323-.024-.333-.04-.668-.086-.998-.24-1.746-1.62-3.19-3.343-3.5-.26-.046-.525-.058-.787-.086-.166-.017-.384-.028-.42-.236-.031-.174.115-.313.28-.322.044-.002.09 0 .134 0-.045 0 2.323.066 0 0z" fill="#fff"/><path d="M20.177 15.419c-.004.03-.006.098-.023.163-.062.235-.415.264-.497.027a.713.713 0 0 1-.027-.226 2.86 2.86 0 0 0-.356-1.424 2.636 2.636 0 0 0-1.102-1.042 3.15 3.15 0 0 0-.878-.272c-.133-.022-.267-.036-.4-.054-.16-.023-.247-.127-.24-.287a.25.25 0 0 1 .279-.248c.533.03 1.048.146 1.522.4.964.514 1.515 1.326 1.675 2.411.007.05.02.098.023.147.009.122.015.244.024.405-.01-.16-.004.03 0 0z" fill="#BEC7D1" style="mix-blend-mode:darken"/><path d="M20.177 15.419c-.004.03-.006.098-.023.163-.062.235-.415.264-.497.027a.713.713 0 0 1-.027-.226 2.86 2.86 0 0 0-.356-1.424 2.636 2.636 0 0 0-1.102-1.042 3.15 3.15 0 0 0-.878-.272c-.133-.022-.267-.036-.4-.054-.16-.023-.247-.127-.24-.287a.25.25 0 0 1 .279-.248c.533.03 1.048.146 1.522.4.964.514 1.515 1.326 1.675 2.411.007.05.02.098.023.147.009.122.015.244.024.405-.01-.16-.004.03 0 0z" fill="#fff"/><path d="M18.732 15.362c-.195.004-.299-.105-.319-.284-.014-.126-.025-.253-.054-.375a1.054 1.054 0 0 0-.386-.61 1.001 1.001 0 0 0-.314-.152c-.142-.042-.29-.03-.432-.065-.155-.038-.24-.165-.216-.31a.28.28 0 0 1 .294-.227c.901.066 1.545.535 1.637 1.604.006.076.014.155-.003.228-.028.123-.119.185-.207.191.088-.006-.195.004 0 0z" fill="#BEC7D1" style="mix-blend-mode:darken"/><path d="M18.732 15.362c-.195.004-.299-.105-.319-.284-.014-.126-.025-.253-.054-.375a1.054 1.054 0 0 0-.386-.61 1.001 1.001 0 0 0-.314-.152c-.142-.042-.29-.03-.432-.065-.155-.038-.24-.165-.216-.31a.28.28 0 0 1 .294-.227c.901.066 1.545.535 1.637 1.604.006.076.014.155-.003.228-.028.123-.119.185-.207.191.088-.006-.195.004 0 0z" fill="#fff"/></svg>