<svg width="33" height="33" viewBox="0 0 33 33" fill="none" xmlns="http://www.w3.org/2000/svg"><path d="M13.21 15.526a.602.602 0 0 0 .612-.02l6.6-4.2a.601.601 0 0 0 0-1.012l-6.6-4.2a.601.601 0 0 0-.922.506V15a.6.6 0 0 0 .31.526zm.89-7.833l4.882 3.107-4.883 3.107V7.693z" fill="#525C8C"/><path d="M.3 0v33h32.4V0H.3zm31.2 1.2V21h-30V1.2h30zm-30 30.6v-9.6h30v9.6h-30z" fill="#525C8C"/><path d="M28.5 26.4H14.1v-1.2a.6.6 0 1 0-1.2 0v1.2h-2.4a.6.6 0 1 0 0 1.2h2.4v1.2a.6.6 0 1 0 1.2 0v-1.2h14.4a.6.6 0 1 0 0-1.2zm-24-1.8a.6.6 0 0 0-.6.6v3.6a.6.6 0 1 0 1.2 0v-3.6a.6.6 0 0 0-.6-.6zm2.4 0a.6.6 0 0 0-.6.6v3.6a.6.6 0 1 0 1.2 0v-3.6a.6.6 0 0 0-.6-.6z" fill="#525C8C"/></svg>