<svg width="26" height="26" viewBox="0 0 26 26" fill="none" xmlns="http://www.w3.org/2000/svg"><path d="M13 0c7.18 0 13 5.82 13 13s-5.82 13-13 13S0 20.18 0 13 5.82 0 13 0z" fill="#E41811"/><path fill-rule="evenodd" clip-rule="evenodd" d="M13.655 10.246a1.53 1.53 0 0 1-.969.317 1.48 1.48 0 0 1-.95-.326.944.944 0 0 1-.356-.775V7.485c0-.297.122-.53.365-.706.243-.175.572-.262.982-.262.375 0 .682.092.921.276a.866.866 0 0 1 .358.715v1.97c0 .327-.117.582-.351.768zm-1.282-2.848c-.077.048-.116.108-.116.183v1.873c0 .095.036.168.108.22a.522.522 0 0 0 .31.078.6.6 0 0 0 .328-.08.248.248 0 0 0 .121-.218V7.581c0-.075-.04-.135-.123-.183a.662.662 0 0 0-.326-.07.586.586 0 0 0-.302.07zm3.46 3.007c-.146.08-.287.156-.426.156a.504.504 0 0 1-.402-.217c-.088-.117-.134-.293-.134-.529V6.512h.766v3.03c0 .094.018.161.05.202.031.043.084.064.156.064a.436.436 0 0 0 .215-.084 1.09 1.09 0 0 0 .236-.212v-3h.768v3.952h-.768v-.438a1.674 1.674 0 0 1-.46.379zm-7.472 1.79h9.278c1.475 0 2.671 1.15 2.671 2.566v2.17c0 1.416-1.196 2.566-2.67 2.566H8.36c-1.475 0-2.67-1.15-2.67-2.567v-2.17c0-1.415 1.195-2.565 2.67-2.565zm.56 2.202h.82v-.58H7.306v.58h.82v3.398h.795v-3.398zm2.413 3.445h.856v-3.21h-.855v2.436c-.08.071-.17.128-.266.172a.59.59 0 0 1-.239.068c-.08 0-.139-.015-.176-.05-.035-.034-.052-.088-.052-.165v-2.46h-.856v2.682c0 .191.051.334.15.43.101.096.249.144.447.144a1.3 1.3 0 0 0 .497-.103c.172-.067.335-.167.494-.297v.353zm3.896-.128c.132-.113.199-.273.199-.483v-1.649c0-.243-.071-.429-.213-.556-.14-.125-.345-.188-.612-.188-.131 0-.261.023-.39.07a1.388 1.388 0 0 0-.363.207v-1.297h-.853v4.026h.854v-.227c.11.092.232.158.361.201.129.043.276.064.443.064.25 0 .443-.055.573-.168zm1.877-1.39h1.576v-.785c0-.29-.1-.515-.302-.67-.204-.155-.494-.233-.87-.233-.37 0-.67.083-.903.25-.234.169-.35.388-.35.654v1.383c0 .296.107.53.318.697.212.169.503.253.872.253.41 0 .72-.08.926-.238.21-.16.311-.398.311-.713v-.158h-.847v.14c0 .182-.03.298-.083.352-.055.053-.15.08-.288.08-.13 0-.224-.031-.28-.094-.054-.063-.08-.175-.08-.337v-.58zm-6.856-5.752h-.97V8.317L8.126 4.879h.977l.63 2.277h.06l.6-2.277h.986L10.251 8.21v2.362zm3.774 4.766l.18-.029a.4.4 0 0 1 .263.077c.06.052.089.127.089.229v1.534c0 .094-.025.162-.073.204-.05.043-.125.063-.229.063l-.204-.032a.744.744 0 0 1-.2-.105v-1.85l.174-.09zm3.205-.08c.058-.056.151-.084.283-.084.125 0 .218.028.274.085.057.055.087.147.087.276v.31h-.729v-.31c0-.13.028-.222.085-.276z" fill="#BEC7D1" style="mix-blend-mode:darken"/><path fill-rule="evenodd" clip-rule="evenodd" d="M13.655 10.246a1.53 1.53 0 0 1-.969.317 1.48 1.48 0 0 1-.95-.326.944.944 0 0 1-.356-.775V7.485c0-.297.122-.53.365-.706.243-.175.572-.262.982-.262.375 0 .682.092.921.276a.866.866 0 0 1 .358.715v1.97c0 .327-.117.582-.351.768zm-1.282-2.848c-.077.048-.116.108-.116.183v1.873c0 .095.036.168.108.22a.522.522 0 0 0 .31.078.6.6 0 0 0 .328-.08.248.248 0 0 0 .121-.218V7.581c0-.075-.04-.135-.123-.183a.662.662 0 0 0-.326-.07.586.586 0 0 0-.302.07zm3.46 3.007c-.146.08-.287.156-.426.156a.504.504 0 0 1-.402-.217c-.088-.117-.134-.293-.134-.529V6.512h.766v3.03c0 .094.018.161.05.202.031.043.084.064.156.064a.436.436 0 0 0 .215-.084 1.09 1.09 0 0 0 .236-.212v-3h.768v3.952h-.768v-.438a1.674 1.674 0 0 1-.46.379zm-7.472 1.79h9.278c1.475 0 2.671 1.15 2.671 2.566v2.17c0 1.416-1.196 2.566-2.67 2.566H8.36c-1.475 0-2.67-1.15-2.67-2.567v-2.17c0-1.415 1.195-2.565 2.67-2.565zm.56 2.202h.82v-.58H7.306v.58h.82v3.398h.795v-3.398zm2.413 3.445h.856v-3.21h-.855v2.436c-.08.071-.17.128-.266.172a.59.59 0 0 1-.239.068c-.08 0-.139-.015-.176-.05-.035-.034-.052-.088-.052-.165v-2.46h-.856v2.682c0 .191.051.334.15.43.101.096.249.144.447.144a1.3 1.3 0 0 0 .497-.103c.172-.067.335-.167.494-.297v.353zm3.896-.128c.132-.113.199-.273.199-.483v-1.649c0-.243-.071-.429-.213-.556-.14-.125-.345-.188-.612-.188-.131 0-.261.023-.39.07a1.388 1.388 0 0 0-.363.207v-1.297h-.853v4.026h.854v-.227c.11.092.232.158.361.201.129.043.276.064.443.064.25 0 .443-.055.573-.168zm1.877-1.39h1.576v-.785c0-.29-.1-.515-.302-.67-.204-.155-.494-.233-.87-.233-.37 0-.67.083-.903.25-.234.169-.35.388-.35.654v1.383c0 .296.107.53.318.697.212.169.503.253.872.253.41 0 .72-.08.926-.238.21-.16.311-.398.311-.713v-.158h-.847v.14c0 .182-.03.298-.083.352-.055.053-.15.08-.288.08-.13 0-.224-.031-.28-.094-.054-.063-.08-.175-.08-.337v-.58zm-6.856-5.752h-.97V8.317L8.126 4.879h.977l.63 2.277h.06l.6-2.277h.986L10.251 8.21v2.362zm3.774 4.766l.18-.029a.4.4 0 0 1 .263.077c.06.052.089.127.089.229v1.534c0 .094-.025.162-.073.204-.05.043-.125.063-.229.063l-.204-.032a.744.744 0 0 1-.2-.105v-1.85l.174-.09zm3.205-.08c.058-.056.151-.084.283-.084.125 0 .218.028.274.085.057.055.087.147.087.276v.31h-.729v-.31c0-.13.028-.222.085-.276z" fill="#fff"/></svg>