<svg width="33" height="33" viewBox="0 0 33 33" fill="none" xmlns="http://www.w3.org/2000/svg"><path d="M16.5 0C25.613 0 33 7.388 33 16.5S25.613 33 16.5 33 0 25.612 0 16.5 7.387 0 16.5 0z" fill="#E41811"/><path fill-rule="evenodd" clip-rule="evenodd" d="M17.331 13.005c-.299.236-.707.402-1.23.402a1.88 1.88 0 0 1-1.206-.414c-.301-.245-.451-.57-.451-.983V9.5c0-.377.154-.674.464-.896.308-.222.725-.332 1.245-.332.477 0 .866.116 1.17.35a1.1 1.1 0 0 1 .454.907v2.502c0 .414-.149.737-.446.974zM15.704 9.39c-.098.06-.148.137-.148.232V12c0 .12.047.213.138.278.091.067.223.1.393.1a.761.761 0 0 0 .416-.101.314.314 0 0 0 .155-.277V9.622c0-.095-.052-.172-.157-.232a.841.841 0 0 0-.414-.088.744.744 0 0 0-.383.088zm4.393 3.816c-.186.1-.366.198-.543.198-.225 0-.394-.126-.509-.275-.112-.149-.171-.372-.171-.671V8.264h.973v3.847c0 .118.022.203.063.256.04.054.107.08.198.08.072 0 .162-.036.273-.106.108-.071.209-.16.3-.27V8.265h.974v5.018h-.974v-.556c-.18.204-.366.36-.562.468l-.022.012zm-9.486 2.272h11.777c1.872 0 3.39 1.46 3.39 3.257v2.753c0 1.799-1.518 3.258-3.39 3.258H10.611c-1.872 0-3.39-1.46-3.39-3.258v-2.753c0-1.798 1.518-3.257 3.39-3.257zm.711 2.795h1.042v-.736H9.273v.736h1.042v4.312h1.007v-4.312zm3.064 4.372h1.086v-4.074h-1.086v3.092c-.102.09-.215.162-.337.22a.748.748 0 0 1-.303.085c-.102 0-.177-.02-.224-.064-.044-.043-.066-.111-.066-.209v-3.123H12.37v3.405c0 .242.065.424.19.545.128.122.316.183.568.183.204 0 .414-.042.63-.13a2.32 2.32 0 0 0 .628-.377v.447zm4.944-.162c.168-.143.252-.346.252-.613v-2.093c0-.308-.09-.544-.27-.705-.178-.16-.437-.24-.777-.24-.166 0-.33.03-.494.09-.16.06-.314.149-.46.262v-1.647h-1.084v5.111h1.084v-.288c.14.116.295.2.459.255.163.055.35.082.562.082.316 0 .561-.07.728-.214zm2.383-1.763h2v-.997c0-.37-.127-.654-.384-.851-.258-.197-.626-.296-1.105-.296-.469 0-.848.106-1.144.319-.297.213-.446.491-.446.829v1.755c0 .375.136.672.404.885.27.214.639.321 1.108.321.52 0 .913-.1 1.175-.303.266-.203.395-.504.395-.904v-.2H22.64v.177c0 .231-.037.379-.105.447-.07.067-.19.1-.365.1-.166 0-.285-.038-.355-.118-.07-.08-.102-.223-.102-.428v-.736zm-8.703-7.301h-1.23v-2.863l-1.467-4.363h1.241l.798 2.89h.079l.76-2.89h1.252L13.01 10.42v2.998zm4.791 6.049l.228-.037c.146 0 .256.033.334.098.077.065.113.16.113.29v1.948c0 .118-.032.205-.093.257-.062.055-.158.08-.29.08l-.259-.04a.945.945 0 0 1-.254-.132v-2.35l.221-.114zm4.068-.101c.073-.072.191-.107.358-.107.16 0 .278.035.349.107.072.07.11.187.11.35v.395h-.925v-.394c0-.164.035-.282.108-.351z" fill="#BEC7D1" style="mix-blend-mode:darken"/><path fill-rule="evenodd" clip-rule="evenodd" d="M17.331 13.005c-.299.236-.707.402-1.23.402a1.88 1.88 0 0 1-1.206-.414c-.301-.245-.451-.57-.451-.983V9.5c0-.377.154-.674.464-.896.308-.222.725-.332 1.245-.332.477 0 .866.116 1.17.35a1.1 1.1 0 0 1 .454.907v2.502c0 .414-.149.737-.446.974zM15.704 9.39c-.098.06-.148.137-.148.232V12c0 .12.047.213.138.278.091.067.223.1.393.1a.761.761 0 0 0 .416-.101.314.314 0 0 0 .155-.277V9.622c0-.095-.052-.172-.157-.232a.841.841 0 0 0-.414-.088.744.744 0 0 0-.383.088zm4.393 3.816c-.186.1-.366.198-.543.198-.225 0-.394-.126-.509-.275-.112-.149-.171-.372-.171-.671V8.264h.973v3.847c0 .118.022.203.063.256.04.054.107.08.198.08.072 0 .162-.036.273-.106.108-.071.209-.16.3-.27V8.265h.974v5.018h-.974v-.556c-.18.204-.366.36-.562.468l-.022.012zm-9.486 2.272h11.777c1.872 0 3.39 1.46 3.39 3.257v2.753c0 1.799-1.518 3.258-3.39 3.258H10.611c-1.872 0-3.39-1.46-3.39-3.258v-2.753c0-1.798 1.518-3.257 3.39-3.257zm.711 2.795h1.042v-.736H9.273v.736h1.042v4.312h1.007v-4.312zm3.064 4.372h1.086v-4.074h-1.086v3.092c-.102.09-.215.162-.337.22a.748.748 0 0 1-.303.085c-.102 0-.177-.02-.224-.064-.044-.043-.066-.111-.066-.209v-3.123H12.37v3.405c0 .242.065.424.19.545.128.122.316.183.568.183.204 0 .414-.042.63-.13a2.32 2.32 0 0 0 .628-.377v.447zm4.944-.162c.168-.143.252-.346.252-.613v-2.093c0-.308-.09-.544-.27-.705-.178-.16-.437-.24-.777-.24-.166 0-.33.03-.494.09-.16.06-.314.149-.46.262v-1.647h-1.084v5.111h1.084v-.288c.14.116.295.2.459.255.163.055.35.082.562.082.316 0 .561-.07.728-.214zm2.383-1.763h2v-.997c0-.37-.127-.654-.384-.851-.258-.197-.626-.296-1.105-.296-.469 0-.848.106-1.144.319-.297.213-.446.491-.446.829v1.755c0 .375.136.672.404.885.27.214.639.321 1.108.321.52 0 .913-.1 1.175-.303.266-.203.395-.504.395-.904v-.2H22.64v.177c0 .231-.037.379-.105.447-.07.067-.19.1-.365.1-.166 0-.285-.038-.355-.118-.07-.08-.102-.223-.102-.428v-.736zm-8.703-7.301h-1.23v-2.863l-1.467-4.363h1.241l.798 2.89h.079l.76-2.89h1.252L13.01 10.42v2.998zm4.791 6.049l.228-.037c.146 0 .256.033.334.098.077.065.113.16.113.29v1.948c0 .118-.032.205-.093.257-.062.055-.158.08-.29.08l-.259-.04a.945.945 0 0 1-.254-.132v-2.35l.221-.114zm4.068-.101c.073-.072.191-.107.358-.107.16 0 .278.035.349.107.072.07.11.187.11.35v.395h-.925v-.394c0-.164.035-.282.108-.351z" fill="#fff"/></svg>