<svg width="23" height="23" viewBox="0 0 23 23" fill="none" xmlns="http://www.w3.org/2000/svg">
<path d="M7.6818 21.9999C8.73616 21.9999 9.59089 21.1452 9.59089 20.0909C9.59089 19.0365 8.73616 18.1818 7.6818 18.1818C6.62743 18.1818 5.77271 19.0365 5.77271 20.0909C5.77271 21.1452 6.62743 21.9999 7.6818 21.9999Z" stroke="white" stroke-linecap="round" stroke-linejoin="round"/>
<path d="M19.1364 21.9999C20.1908 21.9999 21.0455 21.1452 21.0455 20.0909C21.0455 19.0365 20.1908 18.1818 19.1364 18.1818C18.082 18.1818 17.2273 19.0365 17.2273 20.0909C17.2273 21.1452 18.082 21.9999 19.1364 21.9999Z" stroke="white" stroke-linecap="round" stroke-linejoin="round"/>
<path d="M5.45773 5.77273H22L20.3964 13.7814C20.2162 14.6884 19.4119 15.3359 18.4873 15.3182H8.39773C7.43314 15.3264 6.614 14.6137 6.48864 13.6573L5.03773 2.66091C4.91328 1.71171 4.10505 1.00145 3.14773 1H1" stroke="white" stroke-linecap="round" stroke-linejoin="round"/>
</svg>
