<svg width="33" height="33" viewBox="0 0 33 33" fill="none" xmlns="http://www.w3.org/2000/svg">
<path d="M10.8636 32C12.42 32 13.6818 30.7383 13.6818 29.1818C13.6818 27.6254 12.42 26.3636 10.8636 26.3636C9.30715 26.3636 8.04541 27.6254 8.04541 29.1818C8.04541 30.7383 9.30715 32 10.8636 32Z" stroke="#333333" stroke-width="2" stroke-linecap="round" stroke-linejoin="round"/>
<path d="M27.7728 32C29.3292 32 30.591 30.7383 30.591 29.1818C30.591 27.6254 29.3292 26.3636 27.7728 26.3636C26.2163 26.3636 24.9546 27.6254 24.9546 29.1818C24.9546 30.7383 26.2163 32 27.7728 32Z" stroke="#333333" stroke-width="2" stroke-linecap="round" stroke-linejoin="round"/>
<path d="M7.58045 8.04545H32L29.6327 19.8677C29.3668 21.2067 28.1794 22.1625 26.8145 22.1364H11.9205C10.4965 22.1484 9.28734 21.0964 9.10227 19.6845L6.96045 3.45182C6.77674 2.05061 5.58365 1.00214 4.17045 1H1" stroke="#333333" stroke-width="2" stroke-linecap="round" stroke-linejoin="round"/>
</svg>
