<svg width="18" height="18" viewBox="0 0 18 18" fill="none" xmlns="http://www.w3.org/2000/svg">
<path d="M6.0909 17C6.89422 17 7.54544 16.3488 7.54544 15.5455C7.54544 14.7421 6.89422 14.0909 6.0909 14.0909C5.28757 14.0909 4.63635 14.7421 4.63635 15.5455C4.63635 16.3488 5.28757 17 6.0909 17Z" stroke="#333333" stroke-linecap="round" stroke-linejoin="round"/>
<path d="M14.8182 17C15.6215 17 16.2727 16.3488 16.2727 15.5455C16.2727 14.7421 15.6215 14.0909 14.8182 14.0909C14.0149 14.0909 13.3636 14.7421 13.3636 15.5455C13.3636 16.3488 14.0149 17 14.8182 17Z" stroke="#333333" stroke-linecap="round" stroke-linejoin="round"/>
<path d="M4.39636 4.63636H17L15.7782 10.7382C15.6409 11.4293 15.0281 11.9226 14.3236 11.9091H6.63636C5.90144 11.9153 5.27734 11.3724 5.18182 10.6436L4.07636 2.26545C3.98154 1.54225 3.36576 1.0011 2.63636 1H1" stroke="#333333" stroke-linecap="round" stroke-linejoin="round"/>
</svg>
