<svg width="35" height="35" viewBox="0 0 35 35" fill="none" xmlns="http://www.w3.org/2000/svg">
<g clip-path="url(#clip0)">
<path d="M34.4803 20.5707L30.488 12.0197L32.2114 12.514C32.5899 12.6226 32.9848 12.404 33.0931 12.0252C33.2017 11.6467 32.9831 11.2521 32.6046 11.1435L20.6219 7.70485C20.6244 7.6536 20.6258 7.60236 20.6258 7.55084C20.626 6.12798 19.6655 4.88447 18.2886 4.52604C16.9117 4.16733 15.4665 4.78421 14.7728 6.02632L2.78891 2.58795C2.41042 2.47934 2.01551 2.69824 1.90689 3.07672C1.79856 3.45521 2.01718 3.84984 2.39566 3.95846L4.76069 4.63716L0.477629 13.811C0.191887 13.911 0.000278876 14.1805 3.75096e-07 14.4836C-0.00083513 16.7982 1.39417 18.8847 3.53334 19.7684C5.6725 20.6523 8.13361 20.1588 9.76674 18.5187C10.8548 17.4579 11.4695 16.0033 11.4723 14.4836C11.4723 14.1644 11.2598 13.8842 10.9526 13.7976L6.97198 5.27186L14.3784 7.39682C14.3759 7.44807 14.3745 7.49931 14.3745 7.55111C14.3768 9.00182 15.3752 10.2609 16.7872 10.5935V24.7159H14.8193C13.2469 24.7159 11.939 25.9778 11.939 27.5505V27.9644C10.6159 28.2429 9.66592 29.4065 9.65757 30.7589V31.757C9.66954 32.1594 9.99622 32.4814 10.3989 32.4872H24.6014C25.0041 32.4814 25.3307 32.1594 25.3427 31.757V30.7589C25.3344 29.4065 24.3844 28.2429 23.0612 27.9644V27.5505C23.0612 25.9778 21.7531 24.7159 20.181 24.7159H18.2131V10.5935C19.0675 10.3915 19.7981 9.84067 20.2275 9.07507L28.2973 11.3908L24.0054 20.5841C23.7193 20.6841 23.5277 20.9537 23.5275 21.2564C23.5269 23.571 24.9219 25.6576 27.0611 26.5412C29.2002 27.4252 31.6611 26.932 33.2942 25.2919C34.3823 24.2308 34.9972 22.7762 35 21.2564C34.9997 20.9373 34.7875 20.6574 34.4803 20.5707ZM5.71817 5.92244L9.36625 13.7363H2.07037L5.71817 5.92244ZM5.71817 18.7413C3.61828 18.7535 1.82223 17.2351 1.48524 15.1623H9.98369C9.6208 17.2335 7.82113 18.7438 5.71817 18.7413ZM23.9168 30.7589V31.0613H11.0835V30.7589C11.0835 29.9726 11.7519 29.3502 12.5378 29.3502H22.4625C23.2484 29.3502 23.9168 29.9726 23.9168 30.7589ZM21.6353 27.5505V27.9243H13.365V27.5505C13.365 26.7643 14.0334 26.1419 14.8193 26.1419H20.181C20.9669 26.1419 21.6353 26.7643 21.6353 27.5505ZM17.5001 9.25053C16.7752 9.25108 16.1296 8.79211 15.8921 8.10728C15.6545 7.42245 15.877 6.66242 16.4463 6.21375C17.0158 5.76509 17.8071 5.72666 18.4172 6.11823C19.0274 6.50952 19.3224 7.24448 19.1522 7.94909C19.1341 7.99421 19.1207 8.04072 19.1121 8.08834C18.8801 8.78181 18.2312 9.24969 17.5001 9.25053ZM32.894 20.5095H25.5981L29.2459 12.6956L32.894 20.5095ZM29.2459 25.5144C27.146 25.5267 25.35 24.0083 25.013 21.9354H33.5114C33.1485 24.0066 31.3489 25.5169 29.2459 25.5144Z" fill="#333333"/>
</g>
<defs>
<clipPath id="clip0">
<rect width="35" height="35" fill="white"/>
</clipPath>
</defs>
</svg>
