<svg width="84" height="84" viewBox="0 0 84 84" fill="none" xmlns="http://www.w3.org/2000/svg">
<g clip-path="url(#clip0)">
<path d="M25.5935 60.7031C24.6879 60.7031 23.9529 61.4381 23.9529 62.3438C23.9529 63.2494 24.6879 63.9844 25.5935 63.9844C26.4991 63.9844 27.2341 63.2494 27.2341 62.3438C27.2341 61.4381 26.4991 60.7031 25.5935 60.7031Z" fill="#333333"/>
<path d="M73.8514 31.1737L83.5194 21.5056C83.9262 21.0989 84.0901 20.5089 83.9518 19.9508C83.8134 19.3925 83.3928 18.9476 82.8432 18.7779L59.3002 11.5116C57.1779 4.68971 50.87 0.00195312 43.6403 0.00195312C36.9196 0.00195312 30.909 4.09777 28.4214 10.2764L1.15188 18.7794C0.603745 18.9504 0.184729 19.3956 0.0474087 19.9533C-0.0899116 20.5107 0.0741509 21.0997 0.480206 21.5058L10.4025 31.4281L4.14454 41.8584C3.88844 42.2851 3.84004 42.805 4.01263 43.2718C4.18523 43.7386 4.56044 44.1016 5.03261 44.259L14.109 47.2843V72.5174C14.109 73.2012 14.5333 73.8133 15.1736 74.0535C20.7234 76.1345 41.3436 83.8681 41.4543 83.9073C41.7798 84.022 42.1465 84.0376 42.504 83.9219C42.5087 83.9202 42.5137 83.9193 42.5184 83.9176L72.0497 74.0739C72.7195 73.8506 73.1715 73.2235 73.1715 72.5174V46.6087L82.8509 43.5669C83.3982 43.395 83.8159 42.9497 83.9526 42.3926C84.0891 41.8354 83.9249 41.2474 83.5193 40.8417L73.8514 31.1737ZM60.0465 16.4082C60.0465 15.9913 60.029 15.5754 59.9976 15.1608L79.274 21.1106L71.0878 29.2966L57.7121 24.8386C59.2267 22.3069 60.0465 19.3856 60.0465 16.4082ZM31.2252 12.138C33.0464 6.84172 38.0357 3.2832 43.6403 3.2832C49.678 3.2832 54.9145 7.36705 56.3745 13.2142C56.6339 14.2532 56.7653 15.3279 56.7653 16.4082C56.7653 19.4555 55.754 22.3117 53.8404 24.6691C51.334 27.7603 47.6162 29.5332 43.6403 29.5332C39.3425 29.5332 35.3113 27.4237 32.856 23.8888C31.3248 21.6894 30.5153 19.1024 30.5153 16.4082C30.5153 14.943 30.754 13.5063 31.2252 12.138ZM4.71892 21.1042L27.4088 14.0291C27.2949 14.813 27.234 15.6071 27.234 16.408C27.234 19.0496 27.8598 21.6082 29.0525 23.9167L12.9115 29.2966L4.71892 21.1042ZM8.01051 41.7928L13.1982 33.1464L39.5405 41.9271L34.353 50.5736C31.5402 49.6359 11.0138 42.7937 8.01051 41.7928ZM40.359 79.9939L17.3903 71.3806V48.3781C35.4618 54.37 34.5793 54.187 35.0825 54.187C35.6465 54.187 36.1866 53.8952 36.4896 53.3903L40.359 46.9409V79.9939ZM41.9997 39.2882L17.6567 31.174L30.912 26.7558C34.0144 30.5697 38.6848 32.8145 43.6403 32.8145C48.2245 32.8145 52.533 30.9279 55.6319 27.604L66.3426 31.1738L41.9997 39.2882ZM69.8903 71.335L43.6403 80.085V45.6942L49.4565 52.9638C49.8796 53.4926 50.5839 53.7068 51.2295 53.504L69.8903 47.64V71.335ZM51.3171 50.0372L44.7507 41.8299L71.0878 33.0509L79.285 41.2481L51.3171 50.0372Z" fill="#333333"/>
<path d="M36.0136 64.3461L32.3649 62.9779C31.5165 62.6599 30.5709 63.0896 30.2526 63.938C29.9345 64.7865 30.3643 65.7321 31.2127 66.0503L34.8614 67.4185C35.7116 67.7371 36.6561 67.3053 36.9737 66.4584C37.2919 65.6101 36.862 64.6643 36.0136 64.3461Z" fill="#333333"/>
<path d="M36.0134 71.3529L26.1697 67.6615C25.3213 67.3434 24.3756 67.7733 24.0573 68.6216C23.7391 69.47 24.1691 70.4158 25.0174 70.7339L34.8612 74.4253C35.051 74.4965 35.2456 74.5303 35.4371 74.5303C36.1013 74.5303 36.7264 74.124 36.9735 73.4652C37.2918 72.6167 36.8619 71.6711 36.0134 71.3529Z" fill="#333333"/>
<path d="M51.9261 10.3243C51.2854 9.68348 50.2465 9.68365 49.6057 10.3243L40.9221 19.0081L38.8009 16.887C38.1602 16.2463 37.1214 16.2463 36.4806 16.887C35.8397 17.5276 35.8399 18.5665 36.4806 19.2073L39.762 22.4884C40.4026 23.1291 41.4415 23.1291 42.0823 22.4884L51.9261 12.6446C52.5667 12.004 52.5667 10.9651 51.9261 10.3243Z" fill="#219653"/>
</g>
<defs>
<clipPath id="clip0">
<rect width="84" height="84" fill="white"/>
</clipPath>
</defs>
</svg>
