<svg width="20" height="20" viewBox="0 0 20 20" fill="none" xmlns="http://www.w3.org/2000/svg">
<g clip-path="url(#clip0)">
<path d="M19.703 11.7547L17.4217 6.86834L18.4065 7.15082C18.6228 7.21289 18.8484 7.08796 18.9104 6.87152C18.9724 6.65525 18.8475 6.42974 18.6312 6.36768L11.7839 4.40273C11.7853 4.37345 11.7861 4.34417 11.7861 4.31473C11.7863 3.50167 11.2374 2.79109 10.4506 2.58627C9.66381 2.3813 8.83802 2.7338 8.44159 3.44358L1.59366 1.4788C1.37738 1.41673 1.15172 1.54182 1.08965 1.75809C1.02775 1.97437 1.15267 2.19987 1.36895 2.26194L2.72039 2.64977L0.272931 7.89195C0.10965 7.94908 0.000159358 8.10313 2.14341e-07 8.27628C-0.000477217 9.59892 0.796671 10.7912 2.01905 11.2962C3.24143 11.8013 4.64778 11.5193 5.58099 10.5821C6.20277 9.97593 6.55399 9.14473 6.55559 8.27628C6.55559 8.0939 6.43416 7.9338 6.25863 7.88431L3.98399 3.01246L8.21625 4.22672C8.21481 4.256 8.21402 4.28529 8.21402 4.31489C8.21529 5.14386 8.78582 5.86335 9.59268 6.05337V14.1234H8.46817C7.56965 14.1234 6.82231 14.8444 6.82231 15.7431V15.9796C6.06622 16.1388 5.52338 16.8037 5.51861 17.5765V18.1468C5.52545 18.3768 5.71213 18.5608 5.94225 18.5641H14.0579C14.288 18.5608 14.4747 18.3768 14.4816 18.1468V17.5765C14.4768 16.8037 13.9339 16.1388 13.1779 15.9796V15.7431C13.1779 14.8444 12.4304 14.1234 11.532 14.1234H10.4075V6.05337C10.8957 5.93799 11.3132 5.6232 11.5586 5.18572L16.1699 6.509L13.7173 11.7623C13.5539 11.8194 13.4444 11.9735 13.4443 12.1465C13.4439 13.4691 14.2411 14.6614 15.4635 15.1664C16.6858 15.6715 18.092 15.3897 19.0253 14.4525C19.647 13.8461 19.9984 13.0149 20 12.1465C19.9998 11.9641 19.8786 11.8042 19.703 11.7547ZM3.26753 3.38422L5.35215 7.8493H1.18307L3.26753 3.38422ZM3.26753 10.7093C2.06759 10.7163 1.04127 9.84862 0.848711 8.66411H5.70497C5.4976 9.84766 4.46922 10.7107 3.26753 10.7093ZM13.6667 17.5765V17.7493H6.33342V17.5765C6.33342 17.1272 6.71537 16.7715 7.16447 16.7715H12.8357C13.2848 16.7715 13.6667 17.1272 13.6667 17.5765ZM12.363 15.7431V15.9567H7.63712V15.7431C7.63712 15.2939 8.01907 14.9382 8.46817 14.9382H11.532C11.9811 14.9382 12.363 15.2939 12.363 15.7431ZM10.0001 5.28598C9.58583 5.2863 9.21694 5.02403 9.08119 4.6327C8.94544 4.24136 9.0726 3.80706 9.39788 3.55068C9.72333 3.2943 10.1755 3.27234 10.5241 3.4961C10.8728 3.71969 11.0414 4.13967 10.9441 4.5423C10.9338 4.56808 10.9261 4.59466 10.9212 4.62187C10.7886 5.01814 10.4178 5.2855 10.0001 5.28598ZM18.7966 11.7197H14.6275L16.7119 7.25458L18.7966 11.7197ZM16.7119 14.5796C15.512 14.5866 14.4857 13.719 14.2931 12.5345H19.1494C18.942 13.718 17.9136 14.5811 16.7119 14.5796Z" fill="#525C8C"/>
</g>
<defs>
<clipPath id="clip0">
<rect width="20" height="20" fill="white"/>
</clipPath>
</defs>
</svg>
