<svg width="17" height="17" viewBox="0 0 17 17" fill="none" xmlns="http://www.w3.org/2000/svg">
<path d="M15.5601 3.77057L15.3058 3.8512L13.9513 3.97187L13.5688 4.5828L13.2912 4.4946L12.2133 3.52274L12.0569 3.01732L11.8475 2.47836L11.17 1.87068L10.3707 1.71429L10.3523 2.0801L11.1353 2.84416L11.5184 3.29546L11.0877 3.52057L10.7371 3.41722L10.2116 3.19806L10.2295 2.77436L9.54009 2.49081L9.3112 3.48702L8.61639 3.64449L8.68512 4.20022L9.59042 4.37447L9.7468 3.48648L10.4941 3.59687L10.8415 3.80033H11.3989L11.7804 4.5644L12.7917 5.59038L12.7176 5.98919L11.9021 5.88529L10.493 6.59687L9.47841 7.81386L9.34637 8.35282H8.98219L8.30362 8.04005L7.64453 8.35282L7.80849 9.04817L8.09529 8.71754L8.59962 8.70185L8.56444 9.32631L8.98219 9.4486L9.3994 9.91722L10.0807 9.72566L10.8588 9.84849L11.7625 10.0915L12.2138 10.1445L12.9789 11.013L14.4557 11.8815L13.5006 13.7062L12.4925 14.1748L12.1099 15.2175L10.651 16.1916L10.4957 16.7533C14.2252 15.855 16.9995 12.5049 16.9995 8.49947C16.9984 6.75001 16.4681 5.12176 15.5601 3.77057Z" fill="white"/>
<path d="M9.47785 12.9421L8.8588 11.7944L9.42698 10.6104L8.8588 10.4405L8.22081 9.79977L6.80739 9.48267L6.33824 8.50107V9.08386H6.13153L4.91345 7.43235V6.07574L4.0206 4.6239L2.60285 4.87661H1.64776L1.16724 4.56168L1.78034 4.07574L1.16886 4.21698C0.431851 5.47564 0.00219727 6.93613 0.00219727 8.50053C0.00219727 13.1937 3.80685 17 8.50058 17C8.86205 17 9.21648 16.9681 9.56713 16.9259L9.47839 15.8961C9.47839 15.8961 9.86854 14.3669 9.86854 14.3149C9.868 14.2624 9.47785 12.9421 9.47785 12.9421Z" fill="white"/>
<path d="M3.16021 2.7408L4.66995 2.5303L5.36584 2.14881L6.14884 2.37446L7.39993 2.30519L7.8285 1.63149L8.4535 1.73431L9.97136 1.59199L10.3896 1.13095L10.9795 0.737013L11.8139 0.862554L12.118 0.816558C11.019 0.299242 9.79603 0 8.50003 0C5.86205 0 3.50328 1.20238 1.94592 3.09037H1.95025L3.16021 2.7408ZM8.85934 0.845238L9.72731 0.367424L10.2847 0.689394L9.47785 1.30357L8.70729 1.38095L8.36042 1.15584L8.85934 0.845238ZM6.28846 0.915043L6.67157 1.07468L7.17319 0.915043L7.44646 1.38853L6.28846 1.69264L5.73164 1.36688C5.7311 1.36688 6.27601 1.01623 6.28846 0.915043Z" fill="white"/>
</svg>
