<svg width="33" height="33" viewBox="0 0 33 33" fill="none" xmlns="http://www.w3.org/2000/svg">
<path d="M16.5 33C25.6127 33 33 25.6127 33 16.5C33 7.3873 25.6127 0 16.5 0C7.3873 0 0 7.3873 0 16.5C0 25.6127 7.3873 33 16.5 33Z" fill="#3B5998"/>
<path d="M20.6487 17.1461H17.7044V27.9325H13.2436V17.1461H11.1221V13.3553H13.2436V10.9023C13.2436 9.14807 14.0769 6.40118 17.7441 6.40118L21.0484 6.41501V10.0946H18.6509C18.2577 10.0946 17.7047 10.2911 17.7047 11.1279V13.3589H21.0384L20.6487 17.1461Z" fill="#BEC7D1" style="mix-blend-mode:darken"/>
<path d="M20.6487 17.1461H17.7044V27.9325H13.2436V17.1461H11.1221V13.3553H13.2436V10.9023C13.2436 9.14807 14.0769 6.40118 17.7441 6.40118L21.0484 6.41501V10.0946H18.6509C18.2577 10.0946 17.7047 10.2911 17.7047 11.1279V13.3589H21.0384L20.6487 17.1461Z" fill="white"/>
</svg>
