<svg width="41" height="30" viewBox="0 0 41 30" fill="none" xmlns="http://www.w3.org/2000/svg"><path d="M32.511 22.852a.641.641 0 0 1-.443-.176l-7.45-6.99a.647.647 0 1 1 .887-.942l7.45 6.99a.647.647 0 0 1-.444 1.118zm-24.869-.001a.648.648 0 0 1-.444-1.119l7.453-6.99a.648.648 0 0 1 .887.943l-7.453 6.99a.641.641 0 0 1-.443.176z" fill="#333"/><path d="M36.918 29.35H3.238A3.24 3.24 0 0 1 0 26.115V4.04A3.24 3.24 0 0 1 3.237.804h33.681a3.24 3.24 0 0 1 3.237 3.237v22.073a3.24 3.24 0 0 1-3.237 3.237zM3.238 2.1c-1.072 0-1.943.87-1.943 1.942v22.073c0 1.07.871 1.942 1.942 1.942h33.681c1.07 0 1.942-.872 1.942-1.942V4.04a1.944 1.944 0 0 0-1.942-1.942H3.238z" fill="#333"/><path d="M20.078 18.33c-.861 0-1.723-.286-2.378-.857L1.075 2.97a.649.649 0 0 1-.064-.915.651.651 0 0 1 .914-.062l16.626 14.502c.827.721 2.226.721 3.052 0L38.208 2.017a.648.648 0 0 1 .852.976L22.455 17.47c-.657.573-1.516.859-2.377.859z" fill="#333"/></svg>