<svg width="62" height="67" viewBox="0 0 62 67" fill="none" xmlns="http://www.w3.org/2000/svg">
<path d="M59.7093 15.1432L33.3823 0.55655C32.0427 -0.185517 30.443 -0.185517 29.1034 0.55655C29.1034 0.556731 29.1034 0.556731 29.1034 0.556731L2.77619 15.1431C1.37272 15.9207 0.500977 17.4004 0.500977 19.0048V47.9949C0.500977 49.5993 1.37272 51.0791 2.77619 51.8566L29.1034 66.4433C29.7731 66.8146 30.5079 67 31.2428 67C31.9774 67 32.7124 66.8144 33.3823 66.4433L59.7093 51.8568C61.1128 51.0791 61.9845 49.5995 61.9845 47.9951V19.0049C61.9847 17.4007 61.1128 15.9209 59.7093 15.1432ZM30.8561 3.72015C31.0982 3.58559 31.3876 3.58595 31.6294 3.72015L42.1421 9.54473L16.7874 23.5926L6.0284 17.476L30.8561 3.72015ZM29.4347 62.4919L4.52926 48.693C4.27533 48.5527 4.11762 48.2852 4.11762 47.9951V20.5497L15.8675 27.2297C15.8704 27.2313 15.8733 27.233 15.8762 27.2346L29.4347 34.9428V62.4919ZM20.4708 25.6866L45.8736 11.6121L56.798 17.6646L31.2545 31.8172L20.4708 25.6866ZM58.3677 47.9949C58.3679 48.2852 58.2102 48.5527 57.9563 48.6934L33.0508 62.4921V34.9564L58.3677 20.9295V47.9949Z" fill="#333333"/>
<path d="M18.5506 33.2279L8.9683 27.9506C8.40836 27.6426 7.72688 27.6526 7.17598 27.9778C6.62526 28.3031 6.2876 28.8951 6.2876 29.5346V37.1794C6.2876 37.8384 6.64624 38.4454 7.22355 38.7635L16.8058 44.0408C17.0777 44.1904 17.3781 44.2651 17.6781 44.2651C17.9966 44.2651 18.3148 44.181 18.598 44.0135C19.1487 43.6883 19.4864 43.0964 19.4864 42.4568V34.8121C19.4865 34.1529 19.1281 33.5459 18.5506 33.2279ZM15.8699 39.3963L9.90443 36.111V32.5953L15.8699 35.8808V39.3963Z" fill="#219653"/>
<path d="M26.0941 52.3478L21.3032 49.709C20.4285 49.2272 19.3285 49.5459 18.8467 50.4207C18.3649 51.2955 18.6836 52.3952 19.5584 52.8772L24.3494 55.5159C24.6261 55.6684 24.9252 55.7405 25.22 55.7405C25.8578 55.7405 26.4761 55.4023 26.8058 54.8042C27.2876 53.9294 26.9691 52.8296 26.0941 52.3478Z" fill="#219653"/>
</svg>
