<svg width="67" height="67" viewBox="0 0 67 67" fill="none" xmlns="http://www.w3.org/2000/svg">
<g clip-path="url(#clip0)">
<path d="M54.0967 20.2165L35.0481 9.66245C34.0788 9.12554 32.9213 9.12554 31.9521 9.66245C31.9521 9.66258 31.9521 9.66258 31.9521 9.66258L12.9033 20.2164C11.8878 20.7791 11.2571 21.8496 11.2571 23.0105V43.986C11.2571 45.1469 11.8878 46.2176 12.9033 46.7801L31.9521 57.3342C32.4366 57.6028 32.9683 57.737 33.5 57.737C34.0315 57.737 34.5634 57.6027 35.0481 57.3342L54.0967 46.7803C55.1122 46.2176 55.7429 45.147 55.7429 43.9861V23.0106C55.743 21.8499 55.1122 20.7792 54.0967 20.2165ZM33.2202 11.9514C33.3954 11.8541 33.6048 11.8543 33.7798 11.9514L41.3861 16.1658L23.0409 26.33L15.2564 21.9043L33.2202 11.9514ZM32.1918 54.4752L14.1717 44.4911C13.988 44.3896 13.8739 44.196 13.8739 43.9861V24.1283L22.3754 28.9616C22.3775 28.9627 22.3796 28.9639 22.3817 28.9651L32.1918 34.5423V54.4752ZM25.706 27.8451L44.086 17.6616L51.9903 22.0408L33.5085 32.2808L25.706 27.8451ZM53.126 43.986C53.1261 44.196 53.012 44.3896 52.8283 44.4914L34.8082 54.4753V34.5521L53.126 24.4031V43.986Z" fill="#333333"/>
<path d="M24.3166 33.3008L17.3834 29.4824C16.9783 29.2596 16.4852 29.2668 16.0866 29.5021C15.6882 29.7375 15.4438 30.1658 15.4438 30.6285V36.1598C15.4438 36.6366 15.7033 37.0758 16.121 37.306L23.0542 41.1243C23.2509 41.2325 23.4683 41.2866 23.6854 41.2866C23.9158 41.2866 24.146 41.2257 24.3509 41.1046C24.7494 40.8693 24.9937 40.441 24.9937 39.9783V34.447C24.9938 33.97 24.7345 33.5308 24.3166 33.3008ZM22.377 37.7639L18.0608 35.3868V32.843L22.377 35.2202V37.7639Z" fill="#333333"/>
<path d="M29.7748 47.1343L26.3083 45.2251C25.6755 44.8764 24.8796 45.107 24.531 45.74C24.1824 46.373 24.4129 47.1686 25.0459 47.5173L28.5124 49.4265C28.7126 49.5369 28.929 49.5891 29.1423 49.5891C29.6037 49.5891 30.0511 49.3444 30.2897 48.9116C30.6383 48.2787 30.4078 47.4829 29.7748 47.1343Z" fill="#333333"/>
<path d="M60.8834 14.2042L63.2975 11.7901C63.6716 11.4159 63.7835 10.8532 63.5812 10.3643C63.3786 9.87554 62.9016 9.55664 62.3723 9.55664H55.8738C55.1514 9.55664 54.5654 10.1425 54.5654 10.8651V17.3636C54.5654 17.8928 54.8843 18.3699 55.373 18.5724C55.5349 18.6394 55.705 18.672 55.8734 18.672C56.2141 18.672 56.5485 18.5391 56.7989 18.2887L59.0032 16.0844C67.2917 28.2028 65.8094 44.8598 55.3342 55.3348C46.3245 64.3443 32.9453 66.9036 21.2493 61.8542C20.5858 61.5679 19.8157 61.8733 19.5294 62.5368C19.243 63.2002 19.5485 63.9702 20.212 64.2567C24.4286 66.0769 28.9276 67.0005 33.4711 67.0005C35.4909 67.0005 37.5203 66.8178 39.5362 66.4504C46.2435 65.2275 52.346 62.0238 57.1845 57.1853C62.9118 51.4579 66.3683 43.8582 66.9176 35.7864C67.4411 28.089 65.3014 20.4613 60.8834 14.2042ZM57.1823 14.2045V12.1733H59.2135L57.1823 14.2045Z" fill="#3D4D9B"/>
<path d="M17.4837 59.9079L17.4327 59.8767C16.8156 59.5008 16.0106 59.6964 15.6347 60.3138C15.2589 60.9309 15.4545 61.7358 16.0718 62.1118L16.1228 62.1429C16.3353 62.2724 16.5702 62.334 16.8019 62.334C17.2435 62.334 17.6743 62.1106 17.9208 61.706C18.2964 61.0887 18.1009 60.2838 17.4837 59.9079Z" fill="#3D4D9B"/>
<path d="M51.107 4.99808L51.0422 4.95804C50.4268 4.5792 49.621 4.77104 49.2421 5.3866C48.8633 6.00216 49.0554 6.80799 49.6708 7.18683L49.7356 7.22687C49.9496 7.35852 50.1862 7.42107 50.42 7.42107C50.8593 7.42107 51.2885 7.19991 51.5356 6.79831C51.9143 6.18262 51.7223 5.37679 51.107 4.99808Z" fill="#3D4D9B"/>
<path d="M46.7143 2.71222C40.6301 0.103016 33.9597 -0.642096 27.4246 0.557097C20.7326 1.78534 14.6435 4.98655 9.81493 9.81512C4.08749 15.5426 0.630975 23.1422 0.0818898 31.214C-0.441416 38.9111 1.69826 46.539 6.11633 52.7961L3.70224 55.2102C3.32811 55.5844 3.21623 56.1471 3.41854 56.636C3.62111 57.1248 4.09809 57.4437 4.62741 57.4437H11.1259C11.8483 57.4437 12.4343 56.8578 12.4343 56.1352V49.6367C12.4345 49.1075 12.1156 48.6304 11.6268 48.4279C11.1378 48.2255 10.575 48.3374 10.2008 48.7116L7.99638 50.916C-0.292236 38.7977 1.19014 22.1406 11.6653 11.6655C20.6516 2.67898 34.0042 0.108381 45.6829 5.11715C46.3469 5.40203 47.1162 5.09438 47.4011 4.4304C47.6859 3.76642 47.3786 2.9971 46.7143 2.71222ZM9.81728 52.7958V54.827H7.78622L9.81728 52.7958Z" fill="#3D4D9B"/>
</g>
<defs>
<clipPath id="clip0">
<rect width="67" height="67" fill="white"/>
</clipPath>
</defs>
</svg>
