<svg width="33" height="33" viewBox="0 0 33 33" fill="none" xmlns="http://www.w3.org/2000/svg">
<path d="M32.8345 15.3727H31.2512V8.08945C31.2512 6.34335 29.8307 4.92285 28.0846 4.92285H25.9402L23.7457 0.977257C23.4112 0.374269 22.7747 0 22.0844 0C21.7627 0 21.4435 0.0829737 21.1617 0.239363L12.7397 4.92275H3.33237C1.58628 4.92275 0.165771 6.34325 0.165771 8.08935V29.8333C0.165771 31.5794 1.58628 32.9999 3.33237 32.9999H28.0846C29.8307 32.9999 31.2512 31.5794 31.2512 29.8333V23.4475H32.8345V15.3727ZM28.0846 6.18943C29.0598 6.18943 29.8566 6.93038 29.9636 7.87847H27.5836L26.6449 6.18943H28.0846ZM21.7779 1.3464C22.0749 1.17986 22.4746 1.29634 22.6385 1.59217L26.1345 7.87787H10.0317L21.7779 1.3464ZM29.9845 29.8333C29.9845 30.8808 29.132 31.7333 28.0845 31.7333H3.33237C2.28485 31.7333 1.43235 30.8808 1.43235 29.8333V8.08945C1.43235 7.04193 2.28485 6.18943 3.33237 6.18943H10.4623L7.42489 7.87856H3.72822C3.378 7.87856 3.09488 8.16227 3.09488 8.5119C3.09488 8.86154 3.378 9.14524 3.72822 9.14524H5.14686H28.2879H29.9845V15.3733H25.353C23.2022 15.3733 21.4518 17.1238 21.4518 19.2745V19.5469C21.4518 21.6977 23.2023 23.4482 25.353 23.4482H29.9845V29.8333ZM31.5678 22.1809H31.2512H25.353C23.9002 22.1809 22.7184 20.9992 22.7184 19.5462V19.2739C22.7184 17.821 23.9001 16.6392 25.353 16.6392H31.2512H31.5678V22.1809ZM27.2929 19.4621C27.2929 20.2348 26.6671 20.8604 25.8945 20.8604C25.1218 20.8604 24.4962 20.2347 24.4962 19.4621C24.4962 18.6895 25.1219 18.0637 25.8945 18.0637C26.6672 18.0636 27.2929 18.69 27.2929 19.4621Z" fill="#333333"/>
</svg>
