<svg width="17" height="13" viewBox="0 0 17 13" fill="none" xmlns="http://www.w3.org/2000/svg">
<path d="M13.4583 3.66668L10.6249 6.50001H12.7499C12.7499 8.84459 10.8445 10.75 8.49992 10.75C7.7845 10.75 7.1045 10.5729 6.51659 10.2542L5.48242 11.2883C6.35367 11.8408 7.38784 12.1667 8.49992 12.1667C11.6308 12.1667 14.1666 9.63084 14.1666 6.50001H16.2916L13.4583 3.66668ZM4.24992 6.50001C4.24992 4.15543 6.15534 2.25001 8.49992 2.25001C9.21534 2.25001 9.89534 2.42709 10.4833 2.74584L11.5174 1.71168C10.6462 1.15918 9.612 0.833344 8.49992 0.833344C5.36909 0.833344 2.83325 3.36918 2.83325 6.50001H0.708252L3.54159 9.33334L6.37492 6.50001H4.24992Z" fill="#503D9B"/>
</svg>
