<svg width="33" height="33" viewBox="0 0 33 33" fill="none" xmlns="http://www.w3.org/2000/svg">
<path d="M16.5 33C25.6127 33 33 25.6127 33 16.5C33 7.3873 25.6127 0 16.5 0C7.3873 0 0 7.3873 0 16.5C0 25.6127 7.3873 33 16.5 33Z" fill="#2BA5E1"/>
<path d="M7.21833 15.975L11.0475 17.4069L12.5297 22.1825C12.6245 22.4884 12.9978 22.6015 13.2456 22.3985L15.3801 20.6551C15.6038 20.4725 15.9225 20.4634 16.1563 20.6334L20.0061 23.4338C20.2712 23.6268 20.6467 23.4813 20.7132 23.1604L23.5334 9.56885C23.606 9.21831 23.2622 8.92588 22.929 9.05497L7.21385 15.129C6.82603 15.2788 6.82941 15.829 7.21833 15.975ZM12.2908 16.6447L19.7745 12.0266C19.909 11.9439 20.0474 12.1261 19.9319 12.2334L13.7557 17.9855C13.5386 18.1879 13.3986 18.4589 13.3589 18.753L13.1485 20.3151C13.1206 20.5237 12.8282 20.5444 12.7708 20.3425L11.9616 17.494C11.8689 17.1691 12.004 16.822 12.2908 16.6447Z" fill="#BEC7D1" style="mix-blend-mode:darken"/>
<path d="M7.21833 15.975L11.0475 17.4069L12.5297 22.1825C12.6245 22.4884 12.9978 22.6015 13.2456 22.3985L15.3801 20.6551C15.6038 20.4725 15.9225 20.4634 16.1563 20.6334L20.0061 23.4338C20.2712 23.6268 20.6467 23.4813 20.7132 23.1604L23.5334 9.56885C23.606 9.21831 23.2622 8.92588 22.929 9.05497L7.21385 15.129C6.82603 15.2788 6.82941 15.829 7.21833 15.975ZM12.2908 16.6447L19.7745 12.0266C19.909 11.9439 20.0474 12.1261 19.9319 12.2334L13.7557 17.9855C13.5386 18.1879 13.3986 18.4589 13.3589 18.753L13.1485 20.3151C13.1206 20.5237 12.8282 20.5444 12.7708 20.3425L11.9616 17.494C11.8689 17.1691 12.004 16.822 12.2908 16.6447Z" fill="white"/>
</svg>
