<svg width="105" height="81" viewBox="0 0 105 81" fill="none" xmlns="http://www.w3.org/2000/svg"><path d="M19.117 1.095a1.27 1.27 0 0 0-1.674.639 1.26 1.26 0 0 0 .642 1.666 10.173 10.173 0 0 1 6.048 9.282c0 5.601-4.574 10.158-10.197 10.158-5.622 0-10.196-4.557-10.196-10.158A10.18 10.18 0 0 1 9.744 3.42a1.26 1.26 0 0 0 .633-1.67 1.269 1.269 0 0 0-1.676-.63C4.148 3.167 1.206 7.706 1.206 12.681c0 6.993 5.71 12.682 12.73 12.682 7.02 0 12.73-5.689 12.73-12.682 0-5.001-2.963-9.55-7.55-11.587z" fill="#219653"/><path d="M13.982 0h-.045c-.7 0-1.267.565-1.267 1.262 0 .697.567 1.262 1.267 1.262h.039c.697 0 1.264-.56 1.267-1.256A1.265 1.265 0 0 0 13.983 0zm5.852 13.834h-5v5h-1.667v-5h-5v-1.667h5v-5h1.667v5h5v1.667z" fill="#219653"/><g clip-path="url(#a)" fill="#333"><path d="M101.138 47.444h-1.212V36.526c0-1.729-.86-3.26-2.174-4.19V30.85a3.915 3.915 0 0 0-3.911-3.91h-.905l3.463-5.082a3.743 3.743 0 0 0-.984-5.194L71.917.65a3.711 3.711 0 0 0-2.801-.583 3.713 3.713 0 0 0-2.394 1.567L46.441 31.396h-5.644l1.361-13.784a.409.409 0 0 1 .258-.343 8.775 8.775 0 0 0 4.28-3.478.406.406 0 0 1 .384-.18l8.852.874a1.155 1.155 0 0 0 .227-2.297l-8.852-.875a2.701 2.701 0 0 0-2.558 1.239 6.45 6.45 0 0 1-3.148 2.557 2.698 2.698 0 0 0-1.74 2.276l-1.384 14.01h-1.472l2.154-21.8a1.43 1.43 0 0 1 1.563-1.283l17.89 1.767a1.155 1.155 0 0 0 .226-2.297L40.949 6.015a3.743 3.743 0 0 0-4.087 3.353l-1.736 17.571H32.17a3.915 3.915 0 0 0-3.911 3.911v1.014a5.136 5.136 0 0 0-2.992 4.662V75.87a5.136 5.136 0 0 0 5.13 5.13h64.399a5.136 5.136 0 0 0 5.13-5.13V64.952h1.212a2.598 2.598 0 0 0 2.595-2.595V50.04a2.598 2.598 0 0 0-2.595-2.595zm-7.297-18.196c.884 0 1.602.719 1.602 1.602v.588a5.142 5.142 0 0 0-.647-.042h-4.897l1.464-2.148h2.478zM68.63 2.934a1.422 1.422 0 0 1 1.184-.625c.285 0 .563.085.803.249L94.115 18.57c.651.444.82 1.335.376 1.987l-7.385 10.838h-1.773l3.621-5.314a2.698 2.698 0 0 0 .126-2.862 6.451 6.451 0 0 1-.773-3.981 2.7 2.7 0 0 0-1.168-2.591l-12.181-8.3a2.7 2.7 0 0 0-2.838-.14 6.452 6.452 0 0 1-3.988.737 2.732 2.732 0 0 0-2.618 1.164L51.007 31.396h-1.773L68.63 2.934zm.508 19.6c-5.026 0-9.152 3.92-9.488 8.862H53.8l13.62-19.988a.412.412 0 0 1 .391-.178 8.776 8.776 0 0 0 5.424-1.001.407.407 0 0 1 .423.025l12.181 8.302a.408.408 0 0 1 .179.384 8.772 8.772 0 0 0 1.052 5.414.41.41 0 0 1-.023.428l-4.507 6.614h-3.913c-.336-4.943-4.462-8.862-9.489-8.862zm7.174 8.862H61.964c.33-3.669 3.421-6.553 7.174-6.553 3.753 0 6.844 2.884 7.174 6.553zm-45.745-.546c0-.884.72-1.602 1.603-1.602h2.728l-.212 2.148h-4.119v-.546zm-2.992 5.676a2.825 2.825 0 0 1 2.822-2.822h64.399a2.825 2.825 0 0 1 2.822 2.822v3.202H27.575v-3.202zM97.618 75.87a2.825 2.825 0 0 1-2.822 2.822h-64.4a2.825 2.825 0 0 1-2.821-2.822v-3.203h6.224a1.154 1.154 0 1 0 0-2.308h-6.224V42.037h70.043v5.407H86.644c-3.458 0-6.453 2.016-7.875 4.933l-.015.03c-.012.024-.022.05-.034.075a8.688 8.688 0 0 0-.437 1.119 8.725 8.725 0 0 0-.394 2.597c0 4.827 3.928 8.754 8.754 8.754h10.974v5.407H41.19a1.154 1.154 0 1 0 0 2.308h56.429v3.203zm3.806-13.513a.286.286 0 0 1-.286.287H86.644a6.451 6.451 0 0 1-6.446-6.446 6.418 6.418 0 0 1 .78-3.07 6.451 6.451 0 0 1 5.666-3.376h14.494c.158 0 .286.129.286.287v12.318z"/><path d="M86.914 51.516a4.688 4.688 0 0 0-4.683 4.682c0 2.583 2.101 4.683 4.683 4.683s4.683-2.1 4.683-4.683c0-2.582-2.1-4.682-4.683-4.682zm0 7.057a2.377 2.377 0 0 1-2.374-2.375 2.377 2.377 0 0 1 2.374-2.374 2.377 2.377 0 0 1 2.375 2.374 2.377 2.377 0 0 1-2.375 2.375z"/></g><defs><clipPath id="a"><path fill="#fff" transform="translate(24)" d="M0 0h81v81H0z"/></clipPath></defs></svg>