<svg width="73" height="73" viewBox="0 0 73 73" fill="none" xmlns="http://www.w3.org/2000/svg"><g clip-path="url(#a)" fill="#333"><path d="M73 27.982c0-.025-.014-.047-.015-.072a1.161 1.161 0 0 0-.05-.248 1.259 1.259 0 0 0-.069-.21 1.177 1.177 0 0 0-.121-.183 1.194 1.194 0 0 0-.166-.192c-.02-.017-.028-.04-.049-.056l-11.697-9.087V8.515a3.65 3.65 0 0 0-3.65-3.65H43.998L38.718.766a3.61 3.61 0 0 0-4.437 0l-5.28 4.1H15.816a3.65 3.65 0 0 0-3.65 3.65v9.418L.47 27.02c-.021.016-.03.039-.05.056a1.194 1.194 0 0 0-.165.192 1.167 1.167 0 0 0-.121.183 1.2 1.2 0 0 0-.07.21c-.025.08-.042.161-.05.244 0 .024-.014.046-.014.071V69.35c.005.391.073.78.203 1.15a1.206 1.206 0 0 0 1.339 1.824c.614.44 1.351.676 2.107.676H69.35a3.625 3.625 0 0 0 2.113-.685c.104.032.212.05.32.052a1.205 1.205 0 0 0 1.015-1.868c.13-.37.198-.758.202-1.15V27.983zM35.77 2.686a1.167 1.167 0 0 1 1.45 0l2.808 2.18H32.97l2.798-2.18zM3.95 70.566l31.82-24.715a1.17 1.17 0 0 1 1.45 0l31.828 24.715H3.95zm66.617-1.9L38.716 43.929a3.608 3.608 0 0 0-4.434 0L2.432 68.666v-38.83L22.37 45.317a1.217 1.217 0 0 0 1.492-1.924L3.606 27.664l8.56-6.65v9.402a1.217 1.217 0 0 0 2.433 0v-21.9c0-.673.544-1.217 1.216-1.217h41.368c.672 0 1.216.544 1.216 1.216v21.9a1.217 1.217 0 1 0 2.434 0v-9.4l8.56 6.65L49.1 43.422a1.217 1.217 0 0 0 1.493 1.922l19.974-15.509v38.83z"/><path d="M24.333 15.813h24.334a1.217 1.217 0 0 0 0-2.433H24.333a1.217 1.217 0 1 0 0 2.433zm25.55 6.084c0-.672-.544-1.216-1.216-1.216H24.333a1.217 1.217 0 1 0 0 2.433h24.334c.672 0 1.216-.545 1.216-1.217zm0 7.3c0-.672-.545-1.216-1.217-1.216h-10.95a1.217 1.217 0 1 0 0 2.433h10.95c.672 0 1.217-.545 1.217-1.217z"/></g><defs><clipPath id="a"><path fill="#fff" d="M0 0h73v73H0z"/></clipPath></defs></svg>