<svg width="84" height="81" viewBox="0 0 84 81" fill="none" xmlns="http://www.w3.org/2000/svg"><g clip-path="url(#a)"><path d="M82.77 69.218c-.68 0-1.23.551-1.23 1.23v8.222a.207.207 0 0 1-.208.207h-4.676V60.9a1.23 1.23 0 1 0-2.46 0v17.978H65.16l2.445-2.69a1.968 1.968 0 0 0 .47-1.616L65.329 58.33l.506-.76.131.093a1.924 1.924 0 0 0 2.84-.71l2.796-5.607 6.39 2.475c.252.11 3.547 1.62 3.547 5.553v5.332a1.23 1.23 0 0 0 2.462 0v-5.332c0-5.678-4.87-7.746-5.078-7.831a.88.88 0 0 0-.023-.01L68.02 47.32v-2.241a8.985 8.985 0 0 0 3.249-5.58 4.294 4.294 0 0 0 2.285-1.007 4.23 4.23 0 0 0 1.472-3.21 4.23 4.23 0 0 0-.956-2.68V29.28c0-6.498-5.286-11.784-11.784-11.784a11.73 11.73 0 0 0-7.648 2.83 4.23 4.23 0 0 0-.952-2.56v-3.32c0-6.499-5.287-11.785-11.784-11.785-6.498 0-11.784 5.287-11.784 11.784v3.407a4.014 4.014 0 0 0-.952 2.463 11.732 11.732 0 0 0-4.64-2.43 1.23 1.23 0 1 0-.628 2.38 9.326 9.326 0 0 1 6.942 9.015v1.84c-.053-.011-.223-.04-.23-.041-.017-.348-.105-.56-.294-.832-.315-.453-.88-1.017-2.7-2.972a1.945 1.945 0 0 0-2.493-.304c-3.117 2.035-6.903 3.073-10.416 2.867-1.145-.067-1.86.436-2.164 1.26a24.29 24.29 0 0 0-.349.07V29.28c0-4.08 2.727-7.75 6.63-8.927a1.23 1.23 0 1 0-.71-2.356 11.878 11.878 0 0 0-6.008 4.191 11.678 11.678 0 0 0-2.373 7.092v3.407a4.01 4.01 0 0 0-.955 2.593 4.249 4.249 0 0 0 3.762 4.22c.363 2.192 1.552 4.295 3.43 5.724v2.097L5.1 51.534a.732.732 0 0 0-.023.009C4.87 51.628 0 53.695 0 59.373V78.67a2.671 2.671 0 0 0 2.668 2.669h37.894c.53 0 1.022-.157 1.438-.424a2.65 2.65 0 0 0 1.438.424h37.894A2.671 2.671 0 0 0 84 78.67v-8.22c0-.68-.55-1.23-1.23-1.23zM12.42 36.957a1.776 1.776 0 0 1-1.182-1.676c0-.724.525-1.319 1.182-1.601v3.277zm56.876 13.497l-2.415 4.84-2.72-1.932c1.156-1.429.613-.758 3.02-3.728l2.115.82zm-6.915 1.194L59.2 47.719v-1.18a9.924 9.924 0 0 0 3.198.523 9.098 9.098 0 0 0 3.16-.574v1.239l-3.176 3.92zm1.445 4.495l-.453.682H61.39l-.453-.682 1.445-1.026 1.444 1.026zm-21.83-19.33l-3.181-3.928v-1.18a9.924 9.924 0 0 0 3.197.522 9.09 9.09 0 0 0 3.161-.574v1.24l-3.176 3.92zm1.445 4.496l-.452.681h-1.984l-.453-.681 1.445-1.026 1.444 1.026zM32.307 24.546c.2.055.408.092.617.118.363 2.193 1.552 4.295 3.43 5.725v2.097l-2.51.973a4.216 4.216 0 0 0-.544-.858v-3.32c0-1.67-.352-3.275-.993-4.735zm16.228-1.303c0 3.602-2.938 6.523-6.522 6.523-4.044 0-6.747-3.135-6.747-6.523V17.48c3.885.155 7.922-.997 11.222-3.05 1.11 1.19 1.77 1.88 2.048 2.201v6.612zm2.348 1.42a4.31 4.31 0 0 0 .615-.118 11.713 11.713 0 0 0-.997 4.736v3.407c-.19.225-.352.466-.487.719l-2.38-.922v-2.241a8.987 8.987 0 0 0 3.25-5.58zm-13.69 10.138l3.021 3.729-2.06 1.463-.003.002-.653.465-2.416-4.84 2.112-.819zm7.636 2.426l1.966-2.428 2.117.82-2.416 4.84-.655-.465-.002-.001-2.063-1.466 1.053-1.3zm.62 5.508l.132.093a1.924 1.924 0 0 0 2.838-.71l2.077-4.162a4.32 4.32 0 0 0 2.808 1.547 8.945 8.945 0 0 0 3.434 5.72v2.097l-10.461 4.056-1.334-7.88.506-.762zm12.13 6.9l3.02 3.73-2.717 1.93-2.415-4.841 2.111-.818zm11.34-11.557c.001 3.514-2.852 6.523-6.522 6.523-4.182 0-6.747-3.276-6.747-6.523v-5.764c3.858.154 7.9-.982 11.222-3.05 1.11 1.19 1.77 1.881 2.048 2.202v6.612zm3.645-2.797c0 .748-.463 1.414-1.182 1.676v-3.348a1.773 1.773 0 0 1 1.182 1.672zm-19.602-6c0-5.141 4.182-9.323 9.323-9.323 5.14 0 9.323 4.182 9.323 9.323v1.84a8.559 8.559 0 0 0-.23-.041c-.017-.348-.106-.56-.294-.832-.324-.465-.883-1.019-2.7-2.972a1.947 1.947 0 0 0-2.494-.304c-3.032 1.98-6.862 3.1-10.507 2.862-1.024-.067-1.766.435-2.073 1.265-.027.004-.33.066-.348.07V29.28zm.227 4.399v3.275a1.773 1.773 0 0 1-1.182-1.674c0-.724.525-1.319 1.182-1.601zm-1.01-13.233a1.77 1.77 0 0 1-.615 1.344c-.168.144-.36.255-.567.33v-3.346a1.774 1.774 0 0 1 1.182 1.672zM41.9 5.123c5.141 0 9.323 4.182 9.323 9.323v1.84a8.688 8.688 0 0 0-.23-.041c-.018-.377-.127-.609-.349-.908-.329-.446-.936-1.06-2.645-2.896a1.946 1.946 0 0 0-2.493-.304c-3.202 2.092-7.086 3.11-10.607 2.858a1.955 1.955 0 0 0-1.973 1.269c-.027.004-.331.066-.349.07v-1.888c0-5.14 4.183-9.323 9.323-9.323zm-9.096 13.722v3.277a1.776 1.776 0 0 1-1.182-1.675c0-.72.521-1.317 1.182-1.602zM30.612 33.61c.688.25 1.13.852 1.174 1.565a1.769 1.769 0 0 1-1.174 1.781V33.61zm-.114 5.893a4.315 4.315 0 0 0 2.924-1.697l2.152 4.313a1.923 1.923 0 0 0 2.84.71l.13-.094.507.762-1.334 7.878L27.25 47.32v-2.24a8.994 8.994 0 0 0 3.248-5.577zm-8.886 12.146L18.43 47.72v-1.18a9.919 9.919 0 0 0 3.197.523h.001c1.1 0 2.196-.211 3.16-.574v1.239l-3.176 3.92zm1.445 4.495l-.453.682H20.62l-.452-.682 1.444-1.026 1.445 1.026zm3.354-6.509l2.116.82-2.415 4.84-.656-.465-.002-.002-2.063-1.465 3.02-3.728zM14.88 38.078v-5.764c3.906.156 7.945-1.01 11.222-3.05 1.099 1.179 1.77 1.88 2.048 2.202v6.612c0 3.579-2.918 6.523-6.523 6.523-4.014 0-6.747-3.099-6.747-6.523zm1.928 11.558l3.02 3.728-2.06 1.464-.002.002-.654.464-2.416-4.84 2.112-.818zM9.805 78.878V60.9a1.23 1.23 0 1 0-2.461 0v17.978H2.668a.207.207 0 0 1-.207-.207V59.373c0-3.952 3.33-5.458 3.546-5.551l6.385-2.476 2.798 5.606a1.923 1.923 0 0 0 2.839.71l.131-.093.506.761-2.749 16.242-.006.037a1.97 1.97 0 0 0 .477 1.579l2.445 2.69H9.805zm8.582-4.15L21 59.286h1.224l2.613 15.442-3.225 3.548-3.225-3.548zm22.382 3.942a.207.207 0 0 1-.207.208h-4.675V60.9a1.23 1.23 0 1 0-2.461 0v17.978h-9.035l2.446-2.69a1.968 1.968 0 0 0 .47-1.616L24.558 58.33l.506-.76.132.093a1.923 1.923 0 0 0 2.839-.71l2.797-5.607 6.39 2.475c1.862.81 3.547 2.9 3.547 5.553V78.67zM42 54.902a8.76 8.76 0 0 0-2.005-2.23l1.391-8.22h1.224L44 52.676a8.77 8.77 0 0 0-2 2.226zm8.575 23.976V60.9a1.23 1.23 0 1 0-2.46 0v17.978h-4.676a.208.208 0 0 1-.207-.207V59.373c0-1.462.458-2.81 1.435-3.941.652-.748 1.516-1.353 2.11-1.61l6.386-2.476 2.797 5.606a1.923 1.923 0 0 0 2.839.71l.132-.093.505.761-2.748 16.242a1.97 1.97 0 0 0 .471 1.616l2.445 2.69h-9.029zm8.582-4.15l2.614-15.442h1.223l2.614 15.442-3.225 3.548-3.226-3.548z" fill="#333"/></g><defs><clipPath id="a"><path fill="#fff" d="M0 0h84v81H0z"/></clipPath></defs></svg>