<svg width="13" height="15" viewBox="0 0 13 15" fill="none" xmlns="http://www.w3.org/2000/svg">
<path d="M6.49991 7.33599C8.16765 7.33599 9.51975 5.69379 9.51975 3.66801C9.51975 1.6422 9.07583 0 6.49991 0C3.92398 0 3.47998 1.6422 3.47998 3.66801C3.47998 5.69379 4.83208 7.33599 6.49991 7.33599Z" fill="#525C8C"/>
<path d="M0.796126 12.9365C0.795612 12.813 0.795097 12.9017 0.796126 12.9365V12.9365Z" fill="#525C8C"/>
<path d="M12.2036 13.0331C12.2052 12.9993 12.2042 12.7985 12.2036 13.0331V13.0331Z" fill="#525C8C"/>
<path d="M12.1972 12.7885C12.1412 9.2595 11.6804 8.25395 8.15352 7.61743C8.15352 7.61743 7.65706 8.25005 6.49992 8.25005C5.34278 8.25005 4.84623 7.61743 4.84623 7.61743C1.35788 8.247 0.868963 9.23765 0.804678 12.6738C0.799406 12.9544 0.796963 12.9691 0.796021 12.9366C0.796235 12.9976 0.796492 13.1105 0.796492 13.3073C0.796492 13.3073 1.63615 15 6.49992 15C11.3636 15 12.2034 13.3073 12.2034 13.3073C12.2034 13.1809 12.2034 13.0929 12.2036 13.0331C12.2026 13.0532 12.2007 13.0142 12.1972 12.7885Z" fill="#525C8C"/>
</svg>
