<svg width="33" height="33" viewBox="0 0 33 33" fill="none" xmlns="http://www.w3.org/2000/svg">
<path d="M16.5 33C25.6127 33 33 25.6127 33 16.5C33 7.3873 25.6127 0 16.5 0C7.3873 0 0 7.3873 0 16.5C0 25.6127 7.3873 33 16.5 33Z" fill="#7D3DAF"/>
<path d="M25.811 11.7938L25.8053 11.7707C25.3421 9.88259 23.2541 7.85657 21.3365 7.43507L21.3149 7.43058C18.2133 6.83393 15.0685 6.83393 11.9676 7.43058L11.9453 7.43507C10.0284 7.85657 7.94033 9.88259 7.47653 11.7707L7.47144 11.7938C6.89884 14.4305 6.89884 17.1045 7.47144 19.7413L7.47653 19.7644C7.92054 21.5719 9.85311 23.5049 11.6991 24.0364V26.1441C11.6991 26.9069 12.621 27.2815 13.1452 26.7311L15.2629 24.5114C15.7221 24.5373 16.1817 24.5517 16.6412 24.5517C18.2025 24.5517 19.7644 24.4029 21.3149 24.1046L21.3365 24.1001C23.2541 23.6786 25.3421 21.6526 25.8053 19.7645L25.811 19.7414C26.3836 17.1045 26.3836 14.4305 25.811 11.7938ZM24.1352 19.359C23.826 20.5907 22.2406 22.1221 20.9809 22.405C19.3317 22.7213 17.6695 22.8564 16.009 22.81C15.976 22.8092 15.9442 22.822 15.9212 22.8459C15.6856 23.0898 14.375 24.4465 14.375 24.4465L12.7304 26.1485C12.6102 26.2749 12.3989 26.1889 12.3989 26.0144V22.523C12.3989 22.4653 12.3581 22.4163 12.3019 22.4052C12.3016 22.4051 12.3013 22.405 12.301 22.405C11.0412 22.122 9.45643 20.5907 9.1466 19.3589C8.63126 16.9755 8.63126 14.5594 9.1466 12.1761C9.45643 10.9443 11.0412 9.41291 12.301 9.12998C15.1811 8.57761 18.1013 8.57761 20.9809 9.12998C22.2412 9.41291 23.826 10.9443 24.1352 12.1761C24.6511 14.5595 24.6511 16.9756 24.1352 19.359Z" fill="#BEC7D1" style="mix-blend-mode:darken"/>
<path d="M25.811 11.7938L25.8053 11.7707C25.3421 9.88259 23.2541 7.85657 21.3365 7.43507L21.3149 7.43058C18.2133 6.83393 15.0685 6.83393 11.9676 7.43058L11.9453 7.43507C10.0284 7.85657 7.94033 9.88259 7.47653 11.7707L7.47144 11.7938C6.89884 14.4305 6.89884 17.1045 7.47144 19.7413L7.47653 19.7644C7.92054 21.5719 9.85311 23.5049 11.6991 24.0364V26.1441C11.6991 26.9069 12.621 27.2815 13.1452 26.7311L15.2629 24.5114C15.7221 24.5373 16.1817 24.5517 16.6412 24.5517C18.2025 24.5517 19.7644 24.4029 21.3149 24.1046L21.3365 24.1001C23.2541 23.6786 25.3421 21.6526 25.8053 19.7645L25.811 19.7414C26.3836 17.1045 26.3836 14.4305 25.811 11.7938ZM24.1352 19.359C23.826 20.5907 22.2406 22.1221 20.9809 22.405C19.3317 22.7213 17.6695 22.8564 16.009 22.81C15.976 22.8092 15.9442 22.822 15.9212 22.8459C15.6856 23.0898 14.375 24.4465 14.375 24.4465L12.7304 26.1485C12.6102 26.2749 12.3989 26.1889 12.3989 26.0144V22.523C12.3989 22.4653 12.3581 22.4163 12.3019 22.4052C12.3016 22.4051 12.3013 22.405 12.301 22.405C11.0412 22.122 9.45643 20.5907 9.1466 19.3589C8.63126 16.9755 8.63126 14.5594 9.1466 12.1761C9.45643 10.9443 11.0412 9.41291 12.301 9.12998C15.1811 8.57761 18.1013 8.57761 20.9809 9.12998C22.2412 9.41291 23.826 10.9443 24.1352 12.1761C24.6511 14.5595 24.6511 16.9756 24.1352 19.359Z" fill="white"/>
<path d="M19.3815 20.9706C19.1879 20.9113 19.0033 20.8715 18.8319 20.7998C17.0559 20.0567 15.4213 19.0981 14.1265 17.6286C13.3902 16.793 12.814 15.8496 12.3268 14.8512C12.0958 14.3778 11.9011 13.8857 11.7027 13.397C11.5217 12.9512 11.7882 12.4907 12.0689 12.1548C12.3322 11.8396 12.6711 11.5984 13.038 11.4206C13.3245 11.2819 13.607 11.3619 13.8162 11.6067C14.2684 12.136 14.6838 12.6923 15.0202 13.3058C15.227 13.6832 15.1702 14.1445 14.7954 14.4013C14.7043 14.4637 14.6213 14.537 14.5364 14.6075C14.4619 14.6693 14.3919 14.7317 14.3409 14.8154C14.2476 14.9684 14.2431 15.149 14.3032 15.3154C14.7655 16.5964 15.5447 17.5926 16.8233 18.1291C17.0279 18.2149 17.2334 18.3149 17.4691 18.2872C17.8639 18.2407 17.9917 17.804 18.2684 17.5759C18.5388 17.353 18.8843 17.35 19.1755 17.5359C19.4669 17.7218 19.7493 17.9214 20.03 18.1231C20.3055 18.3211 20.5799 18.5147 20.834 18.7404C21.0784 18.9575 21.1626 19.2422 21.025 19.5367C20.773 20.0761 20.4064 20.5249 19.8776 20.8114C19.7283 20.8921 19.55 20.9183 19.3815 20.9706C19.55 20.9183 19.1879 20.9113 19.3815 20.9706ZM16.6461 10.8039C18.9693 10.8695 20.8774 12.4242 21.2863 14.7402C21.3559 15.1348 21.3807 15.5383 21.4117 15.9388C21.4248 16.1073 21.3302 16.2673 21.1498 16.2695C20.9636 16.2717 20.8798 16.1146 20.8677 15.9462C20.8438 15.6129 20.8272 15.278 20.7817 14.9475C20.5412 13.2024 19.1612 11.7586 17.4387 11.4488C17.1795 11.4022 16.9142 11.3899 16.6516 11.3621C16.4856 11.3446 16.2682 11.3344 16.2315 11.1264C16.2006 10.9519 16.3466 10.813 16.5113 10.8041C16.5561 10.8016 16.6012 10.8037 16.6461 10.8039C16.6012 10.8037 18.9693 10.8695 16.6461 10.8039Z" fill="#BEC7D1" style="mix-blend-mode:darken"/>
<path d="M19.3815 20.9706C19.1879 20.9113 19.0033 20.8715 18.8319 20.7998C17.0559 20.0567 15.4213 19.0981 14.1265 17.6286C13.3902 16.793 12.814 15.8496 12.3268 14.8512C12.0958 14.3778 11.9011 13.8857 11.7027 13.397C11.5217 12.9512 11.7882 12.4907 12.0689 12.1548C12.3322 11.8396 12.6711 11.5984 13.038 11.4206C13.3245 11.2819 13.607 11.3619 13.8162 11.6067C14.2684 12.136 14.6838 12.6923 15.0202 13.3058C15.227 13.6832 15.1702 14.1445 14.7954 14.4013C14.7043 14.4637 14.6213 14.537 14.5364 14.6075C14.4619 14.6693 14.3919 14.7317 14.3409 14.8154C14.2476 14.9684 14.2431 15.149 14.3032 15.3154C14.7655 16.5964 15.5447 17.5926 16.8233 18.1291C17.0279 18.2149 17.2334 18.3149 17.4691 18.2872C17.8639 18.2407 17.9917 17.804 18.2684 17.5759C18.5388 17.353 18.8843 17.35 19.1755 17.5359C19.4669 17.7218 19.7493 17.9214 20.03 18.1231C20.3055 18.3211 20.5799 18.5147 20.834 18.7404C21.0784 18.9575 21.1626 19.2422 21.025 19.5367C20.773 20.0761 20.4064 20.5249 19.8776 20.8114C19.7283 20.8921 19.55 20.9183 19.3815 20.9706C19.55 20.9183 19.1879 20.9113 19.3815 20.9706ZM16.6461 10.8039C18.9693 10.8695 20.8774 12.4242 21.2863 14.7402C21.3559 15.1348 21.3807 15.5383 21.4117 15.9388C21.4248 16.1073 21.3302 16.2673 21.1498 16.2695C20.9636 16.2717 20.8798 16.1146 20.8677 15.9462C20.8438 15.6129 20.8272 15.278 20.7817 14.9475C20.5412 13.2024 19.1612 11.7586 17.4387 11.4488C17.1795 11.4022 16.9142 11.3899 16.6516 11.3621C16.4856 11.3446 16.2682 11.3344 16.2315 11.1264C16.2006 10.9519 16.3466 10.813 16.5113 10.8041C16.5561 10.8016 16.6012 10.8037 16.6461 10.8039C16.6012 10.8037 18.9693 10.8695 16.6461 10.8039Z" fill="white"/>
<path d="M20.1769 15.4189C20.1731 15.4482 20.1711 15.5169 20.1541 15.5817C20.0924 15.8169 19.7388 15.8464 19.6574 15.609C19.6333 15.5386 19.6296 15.4584 19.6295 15.3826C19.6287 14.8864 19.5217 14.3908 19.2736 13.9591C19.0186 13.5154 18.6289 13.1424 18.1718 12.9167C17.8955 12.7802 17.5966 12.6954 17.2937 12.6448C17.1613 12.6228 17.0275 12.6094 16.8944 12.5907C16.7332 12.5681 16.6471 12.4645 16.6548 12.3043C16.6619 12.1542 16.7707 12.0462 16.9329 12.0555C17.4661 12.086 17.981 12.2022 18.455 12.4553C19.4189 12.97 19.9695 13.7824 20.1302 14.8673C20.1374 14.9165 20.1491 14.9651 20.1528 15.0145C20.1619 15.1363 20.1676 15.2583 20.1769 15.4189C20.1676 15.2583 20.1731 15.4482 20.1769 15.4189Z" fill="#BEC7D1" style="mix-blend-mode:darken"/>
<path d="M20.1769 15.4189C20.1731 15.4482 20.1711 15.5169 20.1541 15.5817C20.0924 15.8169 19.7388 15.8464 19.6574 15.609C19.6333 15.5386 19.6296 15.4584 19.6295 15.3826C19.6287 14.8864 19.5217 14.3908 19.2736 13.9591C19.0186 13.5154 18.6289 13.1424 18.1718 12.9167C17.8955 12.7802 17.5966 12.6954 17.2937 12.6448C17.1613 12.6228 17.0275 12.6094 16.8944 12.5907C16.7332 12.5681 16.6471 12.4645 16.6548 12.3043C16.6619 12.1542 16.7707 12.0462 16.9329 12.0555C17.4661 12.086 17.981 12.2022 18.455 12.4553C19.4189 12.97 19.9695 13.7824 20.1302 14.8673C20.1374 14.9165 20.1491 14.9651 20.1528 15.0145C20.1619 15.1363 20.1676 15.2583 20.1769 15.4189C20.1676 15.2583 20.1731 15.4482 20.1769 15.4189Z" fill="white"/>
<path d="M18.7316 15.3622C18.5372 15.3657 18.4332 15.2573 18.4131 15.0776C18.3992 14.9523 18.3882 14.8253 18.3586 14.7034C18.3002 14.4633 18.1736 14.2409 17.9733 14.0937C17.8788 14.0243 17.7717 13.9736 17.6594 13.941C17.5168 13.8995 17.3688 13.9109 17.2265 13.8757C17.0721 13.8376 16.9866 13.7114 17.0109 13.5653C17.033 13.4323 17.1613 13.3285 17.3054 13.339C18.2061 13.4046 18.8498 13.8741 18.9417 14.9434C18.9482 15.0188 18.9558 15.0985 18.9392 15.1707C18.9108 15.2943 18.8201 15.3562 18.7316 15.3622C18.8201 15.3562 18.5372 15.3657 18.7316 15.3622Z" fill="#BEC7D1" style="mix-blend-mode:darken"/>
<path d="M18.7316 15.3622C18.5372 15.3657 18.4332 15.2573 18.4131 15.0776C18.3992 14.9523 18.3882 14.8253 18.3586 14.7034C18.3002 14.4633 18.1736 14.2409 17.9733 14.0937C17.8788 14.0243 17.7717 13.9736 17.6594 13.941C17.5168 13.8995 17.3688 13.9109 17.2265 13.8757C17.0721 13.8376 16.9866 13.7114 17.0109 13.5653C17.033 13.4323 17.1613 13.3285 17.3054 13.339C18.2061 13.4046 18.8498 13.8741 18.9417 14.9434C18.9482 15.0188 18.9558 15.0985 18.9392 15.1707C18.9108 15.2943 18.8201 15.3562 18.7316 15.3622C18.8201 15.3562 18.5372 15.3657 18.7316 15.3622Z" fill="white"/>
</svg>
