<svg width="33" height="33" viewBox="0 0 33 33" fill="none" xmlns="http://www.w3.org/2000/svg">
<path d="M13.2108 15.5262C13.3008 15.5754 13.4004 15.6 13.4994 15.6C13.6116 15.6 13.7232 15.5682 13.8216 15.5064L20.4216 11.3064C20.5944 11.196 20.6994 11.0052 20.6994 10.8C20.6994 10.5948 20.5944 10.404 20.4216 10.2936L13.8216 6.0936C13.6356 5.9766 13.4034 5.9688 13.2102 6.0738C13.0188 6.1794 12.8994 6.381 12.8994 6.6V15C12.8994 15.219 13.0188 15.4206 13.2108 15.5262ZM14.0994 7.6926L18.9822 10.8L14.0994 13.9074V7.6926Z" fill="#525C8C"/>
<path d="M0.299805 0V33H32.6998V0H0.299805ZM31.4998 1.2V21H1.4998V1.2H31.4998ZM1.4998 31.8V22.2H31.4998V31.8H1.4998Z" fill="#525C8C"/>
<path d="M28.4994 26.4H14.0994V25.2C14.0994 24.8682 13.8312 24.6 13.4994 24.6C13.1676 24.6 12.8994 24.8682 12.8994 25.2V26.4H10.4994C10.1676 26.4 9.89941 26.6682 9.89941 27C9.89941 27.3318 10.1676 27.6 10.4994 27.6H12.8994V28.8C12.8994 29.1318 13.1676 29.4 13.4994 29.4C13.8312 29.4 14.0994 29.1318 14.0994 28.8V27.6H28.4994C28.8312 27.6 29.0994 27.3318 29.0994 27C29.0994 26.6682 28.8312 26.4 28.4994 26.4Z" fill="#525C8C"/>
<path d="M4.49941 24.6C4.16761 24.6 3.89941 24.8682 3.89941 25.2V28.8C3.89941 29.1318 4.16761 29.4 4.49941 29.4C4.83121 29.4 5.09941 29.1318 5.09941 28.8V25.2C5.09941 24.8682 4.83121 24.6 4.49941 24.6Z" fill="#525C8C"/>
<path d="M6.8998 24.6C6.568 24.6 6.2998 24.8682 6.2998 25.2V28.8C6.2998 29.1318 6.568 29.4 6.8998 29.4C7.2316 29.4 7.4998 29.1318 7.4998 28.8V25.2C7.4998 24.8682 7.2316 24.6 6.8998 24.6Z" fill="#525C8C"/>
</svg>
