<svg width="26" height="26" viewBox="0 0 26 26" fill="none" xmlns="http://www.w3.org/2000/svg">
<path d="M13 0C20.1801 0 26 5.82075 26 13C26 20.1793 20.1801 26 13 26C5.81985 26 0 20.1793 0 13C0 5.82084 5.81994 0 13 0Z" fill="#E41811"/>
<path fill-rule="evenodd" clip-rule="evenodd" d="M13.6549 10.2465C13.4193 10.4325 13.0974 10.5633 12.6864 10.5633C12.2907 10.5633 11.9729 10.4293 11.7357 10.2367C11.4985 10.0441 11.3798 9.78732 11.3798 9.46237V7.48478C11.3798 7.18821 11.5018 6.9542 11.7455 6.77873C11.9884 6.60407 12.3167 6.51714 12.727 6.51714C13.1024 6.51714 13.4087 6.60889 13.6484 6.79337C13.8865 6.97776 14.0059 7.21748 14.0059 7.50754V9.4787C14.0059 9.80535 13.8889 10.0596 13.6549 10.2465ZM12.3728 7.39794C12.2956 7.44587 12.2566 7.50593 12.2566 7.58072V9.45433C12.2566 9.54938 12.2932 9.62248 12.3647 9.67371C12.4371 9.72654 12.5411 9.75171 12.6751 9.75171C12.8125 9.75171 12.9214 9.72494 13.0026 9.67291C13.0839 9.62007 13.1245 9.54697 13.1245 9.45433V7.58072C13.1245 7.50602 13.0839 7.44587 13.001 7.39794C12.9189 7.35162 12.81 7.32886 12.6751 7.32886C12.5516 7.32886 12.4508 7.35162 12.3728 7.39794ZM15.8339 10.4046C15.6873 10.4841 15.5458 10.5609 15.4067 10.5609C15.2287 10.5609 15.0955 10.4618 15.0054 10.3441C14.9169 10.2271 14.8706 10.0507 14.8706 9.81508V6.51223H15.6368V9.54287C15.6368 9.63551 15.6546 9.70298 15.6871 9.74439C15.718 9.78741 15.7708 9.80776 15.8431 9.80776C15.8992 9.80776 15.9707 9.77929 16.0576 9.72405C16.1429 9.668 16.2225 9.59731 16.294 9.51199V6.51143H17.0618V10.4643H16.294V10.0263C16.1525 10.1872 16.0055 10.3107 15.8511 10.3952C15.8454 10.3983 15.8396 10.4014 15.8339 10.4046ZM8.36064 12.1949H17.6394C19.1141 12.1949 20.3101 13.3445 20.31 14.7608V16.9302C20.31 18.3472 19.114 19.4969 17.6393 19.4969H8.36064C6.88517 19.4969 5.68994 18.3472 5.68994 16.9302V14.7608C5.68994 13.3446 6.88517 12.1949 8.36064 12.1949ZM8.9205 14.3968H9.74105L9.74114 13.8175H7.30607V14.3968H8.12671V17.7947H8.9205V14.3968ZM11.3344 17.8418H12.19L12.1901 14.6316H11.3345V17.0683C11.2541 17.139 11.1655 17.1958 11.0688 17.2405C10.973 17.286 10.8917 17.308 10.83 17.308C10.7503 17.308 10.691 17.2926 10.6536 17.2577C10.6194 17.2236 10.6016 17.1699 10.6016 17.0935V14.6325H9.74605V17.3153C9.74605 17.5063 9.79719 17.6493 9.89635 17.7443C9.99711 17.841 10.145 17.8889 10.3432 17.8889C10.504 17.8889 10.6698 17.8556 10.8396 17.7858C11.0119 17.7191 11.1752 17.6192 11.3344 17.4892V17.8418ZM15.2295 17.7143C15.3619 17.6013 15.4286 17.4412 15.4286 17.2308V15.5823C15.4286 15.3393 15.3579 15.1533 15.2157 15.0265C15.0751 14.9006 14.8712 14.838 14.6039 14.838C14.473 14.838 14.343 14.8608 14.2139 14.9087C14.0879 14.9558 13.9669 15.0257 13.8515 15.1151V13.8175H12.9976V17.8442H13.8515V17.6167C13.962 17.7086 14.0839 17.7752 14.2131 17.8182C14.3415 17.8613 14.4894 17.8824 14.6559 17.8824C14.9054 17.8824 15.0987 17.8272 15.2295 17.7143ZM17.1072 16.3248H18.6835L18.6836 15.5392C18.6836 15.2482 18.5828 15.024 18.3805 14.8688C18.1773 14.7136 17.8873 14.6356 17.5103 14.6356C17.1406 14.6356 16.8416 14.7193 16.6084 14.8867C16.3744 15.0548 16.2574 15.2742 16.2574 15.5399V16.9228C16.2574 17.2186 16.3647 17.4526 16.5759 17.6199C16.788 17.7889 17.0789 17.8734 17.4485 17.8734C17.8588 17.8734 18.1676 17.7938 18.374 17.6346C18.5836 17.4745 18.6852 17.2372 18.6852 16.922V16.7644H17.8377V16.9041C17.8377 17.0861 17.8085 17.2023 17.7548 17.256C17.6996 17.3088 17.6053 17.3356 17.4672 17.3356C17.3363 17.3356 17.2429 17.3047 17.1877 17.2421C17.1332 17.1788 17.1072 17.0667 17.1072 16.905V16.3248ZM10.2506 10.5724H9.28124L9.28115 8.31685L8.12582 4.87915H9.10328L9.73213 7.15581H9.79389L10.3936 4.87915H11.3791L10.2506 8.21038V10.5724ZM14.0254 15.3384L14.2049 15.3092C14.3195 15.3092 14.4065 15.3352 14.4682 15.3864C14.5283 15.4375 14.5568 15.5131 14.5568 15.6147V17.1495C14.5568 17.2429 14.5316 17.3112 14.4837 17.3526C14.4349 17.3956 14.3593 17.416 14.2554 17.416L14.0514 17.3843C13.9864 17.364 13.919 17.3275 13.8507 17.2795V15.4287L14.0254 15.3384ZM17.2299 15.2588C17.2875 15.202 17.381 15.1743 17.5126 15.1743C17.6378 15.1743 17.7311 15.202 17.7872 15.2588C17.8441 15.3141 17.8742 15.4059 17.8742 15.5351V15.8455H17.1454V15.5351C17.1454 15.4059 17.173 15.3133 17.2299 15.2588Z" fill="#BEC7D1" style="mix-blend-mode:darken"/>
<path fill-rule="evenodd" clip-rule="evenodd" d="M13.6549 10.2465C13.4193 10.4325 13.0974 10.5633 12.6864 10.5633C12.2907 10.5633 11.9729 10.4293 11.7357 10.2367C11.4985 10.0441 11.3798 9.78732 11.3798 9.46237V7.48478C11.3798 7.18821 11.5018 6.9542 11.7455 6.77873C11.9884 6.60407 12.3167 6.51714 12.727 6.51714C13.1024 6.51714 13.4087 6.60889 13.6484 6.79337C13.8865 6.97776 14.0059 7.21748 14.0059 7.50754V9.4787C14.0059 9.80535 13.8889 10.0596 13.6549 10.2465ZM12.3728 7.39794C12.2956 7.44587 12.2566 7.50593 12.2566 7.58072V9.45433C12.2566 9.54938 12.2932 9.62248 12.3647 9.67371C12.4371 9.72654 12.5411 9.75171 12.6751 9.75171C12.8125 9.75171 12.9214 9.72494 13.0026 9.67291C13.0839 9.62007 13.1245 9.54697 13.1245 9.45433V7.58072C13.1245 7.50602 13.0839 7.44587 13.001 7.39794C12.9189 7.35162 12.81 7.32886 12.6751 7.32886C12.5516 7.32886 12.4508 7.35162 12.3728 7.39794ZM15.8339 10.4046C15.6873 10.4841 15.5458 10.5609 15.4067 10.5609C15.2287 10.5609 15.0955 10.4618 15.0054 10.3441C14.9169 10.2271 14.8706 10.0507 14.8706 9.81508V6.51223H15.6368V9.54287C15.6368 9.63551 15.6546 9.70298 15.6871 9.74439C15.718 9.78741 15.7708 9.80776 15.8431 9.80776C15.8992 9.80776 15.9707 9.77929 16.0576 9.72405C16.1429 9.668 16.2225 9.59731 16.294 9.51199V6.51143H17.0618V10.4643H16.294V10.0263C16.1525 10.1872 16.0055 10.3107 15.8511 10.3952C15.8454 10.3983 15.8396 10.4014 15.8339 10.4046ZM8.36064 12.1949H17.6394C19.1141 12.1949 20.3101 13.3445 20.31 14.7608V16.9302C20.31 18.3472 19.114 19.4969 17.6393 19.4969H8.36064C6.88517 19.4969 5.68994 18.3472 5.68994 16.9302V14.7608C5.68994 13.3446 6.88517 12.1949 8.36064 12.1949ZM8.9205 14.3968H9.74105L9.74114 13.8175H7.30607V14.3968H8.12671V17.7947H8.9205V14.3968ZM11.3344 17.8418H12.19L12.1901 14.6316H11.3345V17.0683C11.2541 17.139 11.1655 17.1958 11.0688 17.2405C10.973 17.286 10.8917 17.308 10.83 17.308C10.7503 17.308 10.691 17.2926 10.6536 17.2577C10.6194 17.2236 10.6016 17.1699 10.6016 17.0935V14.6325H9.74605V17.3153C9.74605 17.5063 9.79719 17.6493 9.89635 17.7443C9.99711 17.841 10.145 17.8889 10.3432 17.8889C10.504 17.8889 10.6698 17.8556 10.8396 17.7858C11.0119 17.7191 11.1752 17.6192 11.3344 17.4892V17.8418ZM15.2295 17.7143C15.3619 17.6013 15.4286 17.4412 15.4286 17.2308V15.5823C15.4286 15.3393 15.3579 15.1533 15.2157 15.0265C15.0751 14.9006 14.8712 14.838 14.6039 14.838C14.473 14.838 14.343 14.8608 14.2139 14.9087C14.0879 14.9558 13.9669 15.0257 13.8515 15.1151V13.8175H12.9976V17.8442H13.8515V17.6167C13.962 17.7086 14.0839 17.7752 14.2131 17.8182C14.3415 17.8613 14.4894 17.8824 14.6559 17.8824C14.9054 17.8824 15.0987 17.8272 15.2295 17.7143ZM17.1072 16.3248H18.6835L18.6836 15.5392C18.6836 15.2482 18.5828 15.024 18.3805 14.8688C18.1773 14.7136 17.8873 14.6356 17.5103 14.6356C17.1406 14.6356 16.8416 14.7193 16.6084 14.8867C16.3744 15.0548 16.2574 15.2742 16.2574 15.5399V16.9228C16.2574 17.2186 16.3647 17.4526 16.5759 17.6199C16.788 17.7889 17.0789 17.8734 17.4485 17.8734C17.8588 17.8734 18.1676 17.7938 18.374 17.6346C18.5836 17.4745 18.6852 17.2372 18.6852 16.922V16.7644H17.8377V16.9041C17.8377 17.0861 17.8085 17.2023 17.7548 17.256C17.6996 17.3088 17.6053 17.3356 17.4672 17.3356C17.3363 17.3356 17.2429 17.3047 17.1877 17.2421C17.1332 17.1788 17.1072 17.0667 17.1072 16.905V16.3248ZM10.2506 10.5724H9.28124L9.28115 8.31685L8.12582 4.87915H9.10328L9.73213 7.15581H9.79389L10.3936 4.87915H11.3791L10.2506 8.21038V10.5724ZM14.0254 15.3384L14.2049 15.3092C14.3195 15.3092 14.4065 15.3352 14.4682 15.3864C14.5283 15.4375 14.5568 15.5131 14.5568 15.6147V17.1495C14.5568 17.2429 14.5316 17.3112 14.4837 17.3526C14.4349 17.3956 14.3593 17.416 14.2554 17.416L14.0514 17.3843C13.9864 17.364 13.919 17.3275 13.8507 17.2795V15.4287L14.0254 15.3384ZM17.2299 15.2588C17.2875 15.202 17.381 15.1743 17.5126 15.1743C17.6378 15.1743 17.7311 15.202 17.7872 15.2588C17.8441 15.3141 17.8742 15.4059 17.8742 15.5351V15.8455H17.1454V15.5351C17.1454 15.4059 17.173 15.3133 17.2299 15.2588Z" fill="white"/>
</svg>
