<svg width="33" height="33" viewBox="0 0 33 33" fill="none" xmlns="http://www.w3.org/2000/svg">
<path d="M16.4999 0C25.6131 0 33 7.38787 33 16.5001C33 25.6122 25.6131 33 16.4999 33C7.38674 33 0 25.6121 0 16.5001C0 7.38798 7.38685 0 16.4999 0Z" fill="#E41811"/>
<path fill-rule="evenodd" clip-rule="evenodd" d="M17.3311 13.0051C17.032 13.2411 16.6235 13.4072 16.1018 13.4072C15.5996 13.4072 15.1962 13.2371 14.8951 12.9926C14.594 12.7482 14.4435 12.4223 14.4435 12.0098V9.4998C14.4435 9.12338 14.5982 8.82637 14.9076 8.60366C15.2159 8.38198 15.6326 8.27165 16.1533 8.27165C16.6297 8.27165 17.0185 8.3881 17.3228 8.62224C17.625 8.85627 17.7766 9.16054 17.7766 9.52869V12.0305C17.7766 12.4451 17.6281 12.7679 17.3311 13.0051ZM15.7038 9.38959C15.6058 9.45042 15.5563 9.52665 15.5563 9.62158V11.9996C15.5563 12.1203 15.6028 12.213 15.6935 12.2781C15.7854 12.3451 15.9173 12.3771 16.0875 12.3771C16.2618 12.3771 16.4 12.3431 16.5031 12.277C16.6063 12.21 16.6578 12.1172 16.6578 11.9996V9.62158C16.6578 9.52676 16.6063 9.45042 16.5011 9.38959C16.3968 9.33079 16.2586 9.30191 16.0875 9.30191C15.9307 9.30191 15.8028 9.33079 15.7038 9.38959ZM20.0967 13.2057C19.9106 13.3067 19.7311 13.4042 19.5545 13.4042C19.3286 13.4042 19.1595 13.2783 19.0452 13.1289C18.9328 12.9804 18.874 12.7565 18.874 12.4575V8.26542H19.8465V12.112C19.8465 12.2296 19.8692 12.3152 19.9104 12.3678C19.9496 12.4224 20.0166 12.4482 20.1084 12.4482C20.1795 12.4482 20.2703 12.4121 20.3806 12.3419C20.4889 12.2708 20.5899 12.1811 20.6807 12.0728V8.2644H21.6552V13.2815H20.6807V12.7256C20.5011 12.9297 20.3146 13.0865 20.1186 13.1938C20.1113 13.1978 20.104 13.2017 20.0967 13.2057ZM10.6114 15.478H22.3883C24.26 15.478 25.7781 16.9372 25.778 18.7348V21.4882C25.778 23.2867 24.2599 24.746 22.3882 24.746H10.6114C8.7387 24.746 7.22168 23.2867 7.22168 21.4882V18.7348C7.22168 16.9373 8.7387 15.478 10.6114 15.478ZM11.322 18.2727H12.3635C12.3635 18.2727 12.3635 17.5374 12.3636 17.5374H9.27292V18.2727H10.3145V22.5854H11.322V18.2727ZM14.3858 22.6452H15.4717C15.4717 22.6452 15.4717 18.5708 15.4718 18.5708H14.3859V21.6635C14.2839 21.7532 14.1714 21.8253 14.0487 21.8821C13.9271 21.9399 13.824 21.9677 13.7456 21.9677C13.6444 21.9677 13.5692 21.9481 13.5217 21.9038C13.4784 21.8606 13.4557 21.7925 13.4557 21.6955V18.5719H12.3698V21.977C12.3698 22.2194 12.4347 22.4009 12.5606 22.5216C12.6885 22.6442 12.8762 22.7051 13.1278 22.7051C13.3319 22.7051 13.5422 22.6628 13.7578 22.5741C13.9764 22.4895 14.1837 22.3627 14.3858 22.1977V22.6452ZM19.3296 22.4834C19.4976 22.34 19.5822 22.1369 19.5822 21.8697V19.7774C19.5822 19.4691 19.4925 19.2329 19.3121 19.072C19.1336 18.9122 18.8748 18.8328 18.5355 18.8328C18.3695 18.8328 18.2044 18.8617 18.0405 18.9225C17.8807 18.9823 17.7271 19.071 17.5806 19.1844V17.5374H16.4968V22.6483H17.5806V22.3596C17.7208 22.4761 17.8756 22.5607 18.0395 22.6153C18.2025 22.6699 18.3902 22.6968 18.6016 22.6968C18.9182 22.6968 19.1635 22.6267 19.3296 22.4834ZM21.7129 20.7199H23.7135C23.7135 20.7199 23.7135 19.7227 23.7136 19.7227C23.7136 19.3534 23.5857 19.0688 23.3289 18.8719C23.0711 18.6749 22.7029 18.5759 22.2244 18.5759C21.7552 18.5759 21.3758 18.6821 21.0798 18.8945C20.7827 19.1079 20.6342 19.3864 20.6342 19.7236V21.4788C20.6342 21.8542 20.7704 22.1512 21.0385 22.3636C21.3077 22.5781 21.6768 22.6854 22.146 22.6854C22.6668 22.6854 23.0587 22.5843 23.3206 22.3822C23.5867 22.1791 23.7156 21.8779 23.7156 21.4778V21.2778H22.64V21.4552C22.64 21.6861 22.6029 21.8336 22.5348 21.9017C22.4647 21.9688 22.3451 22.0027 22.1697 22.0027C22.0037 22.0027 21.885 21.9635 21.8149 21.8841C21.7458 21.8037 21.7129 21.6614 21.7129 21.4562V20.7199ZM13.0102 13.4187H11.7799C11.7799 13.4187 11.7799 10.5559 11.7798 10.5559L10.3134 6.19266H11.554L12.3521 9.08226H12.4305L13.1917 6.19266H14.4426L13.0102 10.4208V13.4187ZM17.8013 19.4679L18.0292 19.4308C18.1746 19.4308 18.285 19.4638 18.3634 19.5287C18.4396 19.5937 18.4757 19.6896 18.4757 19.8185V21.7666C18.4757 21.8852 18.4438 21.9718 18.3829 22.0244C18.3211 22.079 18.2252 22.1048 18.0932 22.1048L17.8343 22.0646C17.7518 22.0389 17.6662 21.9924 17.5796 21.9316V19.5824L17.8013 19.4679ZM21.8686 19.3669C21.9418 19.2947 22.0604 19.2596 22.2275 19.2596C22.3863 19.2596 22.5048 19.2947 22.576 19.3669C22.6482 19.437 22.6863 19.5536 22.6863 19.7175V20.1115H21.7613V19.7175C21.7613 19.5536 21.7964 19.436 21.8686 19.3669Z" fill="#BEC7D1" style="mix-blend-mode:darken"/>
<path fill-rule="evenodd" clip-rule="evenodd" d="M17.3311 13.0051C17.032 13.2411 16.6235 13.4072 16.1018 13.4072C15.5996 13.4072 15.1962 13.2371 14.8951 12.9926C14.594 12.7482 14.4435 12.4223 14.4435 12.0098V9.4998C14.4435 9.12338 14.5982 8.82637 14.9076 8.60366C15.2159 8.38198 15.6326 8.27165 16.1533 8.27165C16.6297 8.27165 17.0185 8.3881 17.3228 8.62224C17.625 8.85627 17.7766 9.16054 17.7766 9.52869V12.0305C17.7766 12.4451 17.6281 12.7679 17.3311 13.0051ZM15.7038 9.38959C15.6058 9.45042 15.5563 9.52665 15.5563 9.62158V11.9996C15.5563 12.1203 15.6028 12.213 15.6935 12.2781C15.7854 12.3451 15.9173 12.3771 16.0875 12.3771C16.2618 12.3771 16.4 12.3431 16.5031 12.277C16.6063 12.21 16.6578 12.1172 16.6578 11.9996V9.62158C16.6578 9.52676 16.6063 9.45042 16.5011 9.38959C16.3968 9.33079 16.2586 9.30191 16.0875 9.30191C15.9307 9.30191 15.8028 9.33079 15.7038 9.38959ZM20.0967 13.2057C19.9106 13.3067 19.7311 13.4042 19.5545 13.4042C19.3286 13.4042 19.1595 13.2783 19.0452 13.1289C18.9328 12.9804 18.874 12.7565 18.874 12.4575V8.26542H19.8465V12.112C19.8465 12.2296 19.8692 12.3152 19.9104 12.3678C19.9496 12.4224 20.0166 12.4482 20.1084 12.4482C20.1795 12.4482 20.2703 12.4121 20.3806 12.3419C20.4889 12.2708 20.5899 12.1811 20.6807 12.0728V8.2644H21.6552V13.2815H20.6807V12.7256C20.5011 12.9297 20.3146 13.0865 20.1186 13.1938C20.1113 13.1978 20.104 13.2017 20.0967 13.2057ZM10.6114 15.478H22.3883C24.26 15.478 25.7781 16.9372 25.778 18.7348V21.4882C25.778 23.2867 24.2599 24.746 22.3882 24.746H10.6114C8.7387 24.746 7.22168 23.2867 7.22168 21.4882V18.7348C7.22168 16.9373 8.7387 15.478 10.6114 15.478ZM11.322 18.2727H12.3635C12.3635 18.2727 12.3635 17.5374 12.3636 17.5374H9.27292V18.2727H10.3145V22.5854H11.322V18.2727ZM14.3858 22.6452H15.4717C15.4717 22.6452 15.4717 18.5708 15.4718 18.5708H14.3859V21.6635C14.2839 21.7532 14.1714 21.8253 14.0487 21.8821C13.9271 21.9399 13.824 21.9677 13.7456 21.9677C13.6444 21.9677 13.5692 21.9481 13.5217 21.9038C13.4784 21.8606 13.4557 21.7925 13.4557 21.6955V18.5719H12.3698V21.977C12.3698 22.2194 12.4347 22.4009 12.5606 22.5216C12.6885 22.6442 12.8762 22.7051 13.1278 22.7051C13.3319 22.7051 13.5422 22.6628 13.7578 22.5741C13.9764 22.4895 14.1837 22.3627 14.3858 22.1977V22.6452ZM19.3296 22.4834C19.4976 22.34 19.5822 22.1369 19.5822 21.8697V19.7774C19.5822 19.4691 19.4925 19.2329 19.3121 19.072C19.1336 18.9122 18.8748 18.8328 18.5355 18.8328C18.3695 18.8328 18.2044 18.8617 18.0405 18.9225C17.8807 18.9823 17.7271 19.071 17.5806 19.1844V17.5374H16.4968V22.6483H17.5806V22.3596C17.7208 22.4761 17.8756 22.5607 18.0395 22.6153C18.2025 22.6699 18.3902 22.6968 18.6016 22.6968C18.9182 22.6968 19.1635 22.6267 19.3296 22.4834ZM21.7129 20.7199H23.7135C23.7135 20.7199 23.7135 19.7227 23.7136 19.7227C23.7136 19.3534 23.5857 19.0688 23.3289 18.8719C23.0711 18.6749 22.7029 18.5759 22.2244 18.5759C21.7552 18.5759 21.3758 18.6821 21.0798 18.8945C20.7827 19.1079 20.6342 19.3864 20.6342 19.7236V21.4788C20.6342 21.8542 20.7704 22.1512 21.0385 22.3636C21.3077 22.5781 21.6768 22.6854 22.146 22.6854C22.6668 22.6854 23.0587 22.5843 23.3206 22.3822C23.5867 22.1791 23.7156 21.8779 23.7156 21.4778V21.2778H22.64V21.4552C22.64 21.6861 22.6029 21.8336 22.5348 21.9017C22.4647 21.9688 22.3451 22.0027 22.1697 22.0027C22.0037 22.0027 21.885 21.9635 21.8149 21.8841C21.7458 21.8037 21.7129 21.6614 21.7129 21.4562V20.7199ZM13.0102 13.4187H11.7799C11.7799 13.4187 11.7799 10.5559 11.7798 10.5559L10.3134 6.19266H11.554L12.3521 9.08226H12.4305L13.1917 6.19266H14.4426L13.0102 10.4208V13.4187ZM17.8013 19.4679L18.0292 19.4308C18.1746 19.4308 18.285 19.4638 18.3634 19.5287C18.4396 19.5937 18.4757 19.6896 18.4757 19.8185V21.7666C18.4757 21.8852 18.4438 21.9718 18.3829 22.0244C18.3211 22.079 18.2252 22.1048 18.0932 22.1048L17.8343 22.0646C17.7518 22.0389 17.6662 21.9924 17.5796 21.9316V19.5824L17.8013 19.4679ZM21.8686 19.3669C21.9418 19.2947 22.0604 19.2596 22.2275 19.2596C22.3863 19.2596 22.5048 19.2947 22.576 19.3669C22.6482 19.437 22.6863 19.5536 22.6863 19.7175V20.1115H21.7613V19.7175C21.7613 19.5536 21.7964 19.436 21.8686 19.3669Z" fill="white"/>
</svg>
