<svg width="71" height="71" viewBox="0 0 71 71" fill="none" xmlns="http://www.w3.org/2000/svg">
<g clip-path="url(#clip0)">
<path d="M35.4994 0C31.5781 0 28.3994 3.17873 28.3994 7.1C28.3994 11.0213 31.5781 14.2 35.4994 14.2C39.4191 14.1962 42.5956 11.0196 42.5994 7.1C42.5994 3.17873 39.4207 0 35.4994 0ZM35.4994 11.8333C32.8853 11.8333 30.7661 9.71413 30.7661 7.1C30.7661 4.48587 32.8853 2.36667 35.4994 2.36667C38.1135 2.36667 40.2327 4.48587 40.2327 7.1C40.2327 9.71413 38.1135 11.8333 35.4994 11.8333Z" fill="#333333"/>
<path d="M40.2339 15.3838H39.9547L39.705 15.508C37.0571 16.8264 33.9441 16.8264 31.2962 15.508L31.0465 15.3838H30.7673C27.5013 15.3876 24.8544 18.0345 24.8506 21.3005V28.4005C24.8506 30.3611 26.44 31.9505 28.4006 31.9505H42.6006C44.5612 31.9505 46.1506 30.3611 46.1506 28.4005V21.3005C46.1467 18.0345 43.4999 15.3876 40.2339 15.3838ZM43.7839 28.4005C43.7839 29.0539 43.2541 29.5838 42.6006 29.5838H28.4006C27.7471 29.5838 27.2173 29.0539 27.2173 28.4005V21.3005C27.2175 19.4379 28.6572 17.8922 30.5152 17.7599C33.6769 19.2273 37.3244 19.2273 40.486 17.7599C42.3438 17.8922 43.7836 19.4379 43.7839 21.3005V28.4005Z" fill="#333333"/>
<path d="M60.35 39.0498C56.4287 39.0498 53.25 42.2285 53.25 46.1498C53.25 50.0711 56.4287 53.2498 60.35 53.2498C64.2713 53.2498 67.45 50.0711 67.45 46.1498C67.4462 42.2302 64.2696 39.0537 60.35 39.0498ZM60.35 50.8831C57.7359 50.8831 55.6167 48.7639 55.6167 46.1498C55.6167 43.5357 57.7359 41.4165 60.35 41.4165C62.9641 41.4165 65.0833 43.5357 65.0833 46.1498C65.0833 48.7639 62.9641 50.8831 60.35 50.8831Z" fill="#333333"/>
<path d="M65.0835 54.4336H64.8043L64.5546 54.5519C61.9067 55.8702 58.7937 55.8702 56.1458 54.5519L55.8961 54.4336H55.6169C52.3509 54.4374 49.704 57.0843 49.7002 60.3503V67.4503C49.7002 69.4109 51.2896 71.0003 53.2502 71.0003H67.4502C69.4108 71.0003 71.0002 69.4109 71.0002 67.4503V60.3503C70.9964 57.0843 68.3495 54.4374 65.0835 54.4336ZM68.6335 67.4503C68.6335 68.1038 68.1037 68.6336 67.4502 68.6336H53.2502C52.5967 68.6336 52.0669 68.1038 52.0669 67.4503V60.3503C52.0672 58.4877 53.5068 56.942 55.3648 56.8097C58.5265 58.2771 62.1739 58.2771 65.3356 56.8097C67.1936 56.942 68.6332 58.4877 68.6335 60.3503V67.4503Z" fill="#333333"/>
<path d="M10.6503 39.0498C6.72902 39.0498 3.55029 42.2285 3.55029 46.1498C3.55029 50.0711 6.72902 53.2498 10.6503 53.2498C14.5716 53.2498 17.7503 50.0711 17.7503 46.1498C17.7464 42.2302 14.5699 39.0537 10.6503 39.0498ZM10.6503 50.8831C8.03616 50.8831 5.91696 48.7639 5.91696 46.1498C5.91696 43.5357 8.03616 41.4165 10.6503 41.4165C13.2644 41.4165 15.3836 43.5357 15.3836 46.1498C15.3836 48.7639 13.2644 50.8831 10.6503 50.8831Z" fill="#333333"/>
<path d="M15.3833 54.4336H15.1041L14.8544 54.5519C12.2065 55.8702 9.09347 55.8702 6.44562 54.5519L6.19593 54.4336H5.91667C2.65067 54.4374 0.00384583 57.0843 0 60.3503V67.4503C0 69.4109 1.58936 71.0003 3.55 71.0003H17.75C19.7106 71.0003 21.3 69.4109 21.3 67.4503V60.3503C21.2962 57.0843 18.6493 54.4374 15.3833 54.4336ZM18.9333 67.4503C18.9333 68.1038 18.4035 68.6336 17.75 68.6336H3.55C2.8965 68.6336 2.36667 68.1038 2.36667 67.4503V60.3503C2.36696 58.4877 3.80664 56.942 5.66462 56.8097C8.82634 58.2771 12.4737 58.2771 15.6354 56.8097C17.4934 56.942 18.933 58.4877 18.9333 60.3503V67.4503Z" fill="#333333"/>
<path d="M47.2401 60.0957C47.2396 60.0944 47.239 60.0931 47.2384 60.0916C46.9822 59.4903 46.2871 59.2106 45.686 59.4668C40.3425 61.7062 34.4081 62.1148 28.8081 60.6288L29.9157 60.3034C30.5432 60.1197 30.9029 59.4624 30.7192 58.8349C30.5355 58.2074 29.8781 57.8477 29.2507 58.0314L24.5173 59.4195C24.4996 59.4195 24.4866 59.4396 24.47 59.4455C24.3604 59.4863 24.2574 59.5434 24.1647 59.6147C24.1236 59.6369 24.0841 59.6617 24.0464 59.6893C23.9215 59.8006 23.8226 59.9379 23.7565 60.0916C23.6923 60.2463 23.6616 60.4129 23.6665 60.5803C23.6954 60.7405 23.7349 60.8986 23.7849 61.0536C23.792 61.0702 23.7849 61.0891 23.7979 61.1057L26.1645 65.6343C26.4672 66.214 27.1823 66.4387 27.762 66.1361C28.3417 65.8334 28.5664 65.1182 28.2638 64.5386L27.3005 62.6973C33.663 64.6099 40.494 64.2381 46.6113 61.6465C47.2131 61.3919 47.4947 60.6976 47.2401 60.0957Z" fill="#525C8C"/>
<path d="M67.1028 31.1133C66.6407 30.6514 65.8916 30.6514 65.4295 31.1133L63.7551 32.7877C62.7753 22.4232 56.195 13.429 46.6134 9.35771C46.0121 9.10152 45.317 9.38123 45.0608 9.98251C44.8046 10.5838 45.0844 11.2789 45.6856 11.535C54.2811 15.1881 60.256 23.1715 61.3376 32.4481L60.0028 31.1133C59.5327 30.6592 58.7837 30.6722 58.3295 31.1423C57.8867 31.6008 57.8867 32.3278 58.3295 32.7865L61.8795 36.3365C62.341 36.7992 63.0904 36.8002 63.5531 36.3386C63.5538 36.3379 63.5546 36.3371 63.5551 36.3365L67.1051 32.7865C67.5665 32.3238 67.5655 31.5748 67.1028 31.1133Z" fill="#525C8C"/>
<path d="M25.9991 10.2467C25.9953 10.1776 25.9851 10.1091 25.9684 10.042C25.9684 10.0313 25.9553 10.0242 25.9506 10.0124C25.9459 10.0006 25.9506 9.99229 25.9506 9.98283C25.9184 9.92529 25.8811 9.87056 25.8394 9.81953C25.8011 9.75015 25.7558 9.68477 25.7045 9.62428C25.6345 9.5623 25.557 9.50949 25.4737 9.46689C25.4322 9.43154 25.3878 9.39944 25.3412 9.37104L20.6079 7.20909C20.0033 6.96089 19.312 7.24977 19.0638 7.8543C18.829 8.426 19.0738 9.08216 19.6257 9.36039L22.0764 10.481C12.8504 15.4186 7.09345 25.036 7.1001 35.5002C7.1001 36.1537 7.62994 36.6836 8.28344 36.6836C8.93693 36.6836 9.46677 36.1537 9.46677 35.5002C9.46085 26.2861 14.3334 17.7573 22.274 13.0832L21.4184 14.8712C21.1364 15.4594 21.3835 16.165 21.9711 16.4486C22.1307 16.5265 22.3058 16.567 22.4834 16.5669C22.9378 16.5663 23.3517 16.3055 23.5484 15.8959L25.9151 10.9579C25.9151 10.9461 25.9151 10.933 25.9246 10.9212C25.9553 10.8403 25.9768 10.7561 25.9885 10.6703C26.0087 10.6066 26.0238 10.5414 26.0334 10.4751C26.0294 10.398 26.0181 10.3216 25.9991 10.2467Z" fill="#525C8C"/>
</g>
<defs>
<clipPath id="clip0">
<rect width="71" height="71" fill="white"/>
</clipPath>
</defs>
</svg>
