<svg width="74" height="74" viewBox="0 0 74 74" fill="none" xmlns="http://www.w3.org/2000/svg">
<g clip-path="url(#clip0)">
<path d="M19.7956 46.5738C20.4866 46.1752 20.7232 45.2905 20.3246 44.5994C19.9255 43.909 19.0413 43.6718 18.3503 44.0704C17.6593 44.4696 17.4221 45.3543 17.8213 46.0447C18.2199 46.7358 19.1046 46.9729 19.7956 46.5738Z" fill="#525C8C"/>
<path d="M13.8727 56.5488L21.1512 69.1563C22.7219 71.8798 26.255 72.8882 29.0491 71.2729C31.8138 69.6752 32.764 66.1426 31.1645 63.3756L26.8286 55.8645L30.5836 53.6966C31.2746 53.2968 31.5117 52.4133 31.1126 51.7222L29.2331 48.4669C29.4573 48.4234 30.9308 48.1344 56.9165 43.0368C60.1289 42.8624 62.0536 39.349 60.431 36.5402L55.6276 28.2207L58.6972 23.5714C58.9987 23.1141 59.0167 22.5264 58.7429 22.0521L55.8523 17.0455C55.5785 16.5712 55.0585 16.2935 54.5137 16.3256L48.9532 16.6593L43.6208 7.42285C42.8484 6.08481 41.4646 5.27464 39.92 5.25545C39.9013 5.25488 39.8833 5.25488 39.8646 5.25488C38.3719 5.25488 37.0169 5.99786 36.2141 7.25404L17.3336 31.3061L5.05914 38.3926C0.231453 41.1788 -1.44082 47.3722 1.35609 52.2129C3.91135 56.6391 9.29853 58.3803 13.8727 56.5488ZM28.6618 64.8215C29.4601 66.2025 28.9875 67.9696 27.6026 68.7696C26.2132 69.573 24.4438 69.0795 23.6546 67.7116L16.428 55.1932L21.4346 52.3026C29.7983 66.7907 28.5274 64.5895 28.6618 64.8215ZM25.3833 53.3606L23.938 50.8573L26.4413 49.412L27.8866 51.9153L25.3833 53.3606ZM53.7955 19.2642L55.793 22.724L54.0118 25.4215L50.569 19.4579L53.7955 19.2642ZM38.6316 8.83881C39.0195 8.20422 39.6349 8.13873 39.8844 8.14551C40.1311 8.14833 40.7459 8.22511 41.1169 8.8676L57.9277 37.9856C58.4753 38.9335 57.8097 40.1253 56.7116 40.1524C56.5145 40.1569 56.4236 40.1925 55.9189 40.2868L38.1365 9.48637C38.5097 9.00648 38.5576 8.96019 38.6316 8.83881ZM36.213 11.9366L52.9204 40.8751L27.7054 45.8207L20.0384 32.5414L36.213 11.9366ZM3.85941 50.7675C3.22483 49.6694 2.88947 48.4229 2.88947 47.1616C2.88947 44.5838 4.27494 42.1832 6.50445 40.8959L17.7694 34.392L24.996 46.9087L13.731 53.4131C10.2798 55.405 5.8518 54.2182 3.85941 50.7675Z" fill="#333333"/>
<path d="M15.3181 47.4895C14.9189 46.7984 14.0348 46.5613 13.3438 46.9604L10.8404 48.4058C10.1505 48.8043 9.26471 48.5667 8.86612 47.8768C8.46696 47.1857 7.58284 46.9486 6.8918 47.3477C6.20076 47.7469 5.96364 48.631 6.36279 49.3221C7.55235 51.3828 10.2059 52.1094 12.2857 50.9091L14.7891 49.4638C15.4801 49.0646 15.7172 48.1811 15.3181 47.4895Z" fill="#525C8C"/>
<path d="M71.8521 8.34594L63.7985 12.8275C63.1012 13.216 62.85 14.0961 63.2384 14.7934C63.6257 15.4901 64.5053 15.7424 65.2042 15.3534L73.2573 10.8718C73.9552 10.4834 74.2058 9.60324 73.8174 8.90599C73.4295 8.20818 72.5494 7.95751 71.8521 8.34594Z" fill="#525C8C"/>
<path d="M71.0073 23.3153L65.4231 21.8192C64.6519 21.6125 63.8593 22.0698 63.6526 22.8411C63.446 23.6123 63.9039 24.4044 64.6751 24.611L70.2598 26.1071C71.0356 26.3154 71.8243 25.8508 72.0298 25.0852C72.2364 24.314 71.7786 23.5214 71.0073 23.3153Z" fill="#525C8C"/>
<path d="M56.9742 3.09496L55.4764 8.67974C55.2698 9.45095 55.7271 10.243 56.4983 10.4502C57.2689 10.6563 58.0616 10.2001 58.2688 9.42836L59.766 3.84359C59.9727 3.07238 59.5154 2.27971 58.7441 2.07308C57.9735 1.86644 57.1808 2.32375 56.9742 3.09496Z" fill="#525C8C"/>
</g>
<defs>
<clipPath id="clip0">
<rect width="74" height="74" fill="white"/>
</clipPath>
</defs>
</svg>
