<svg width="68" height="68" viewBox="0 0 68 68" fill="none" xmlns="http://www.w3.org/2000/svg">
<path d="M61.3594 51.2656C62.0924 51.2656 62.6875 50.6706 62.6875 49.9375C62.6875 49.2044 62.0924 48.6094 61.3594 48.6094C60.6263 48.6094 60.0312 49.2044 60.0312 49.9375C60.0312 50.6706 60.6263 51.2656 61.3594 51.2656Z" fill="#525C8C"/>
<path d="M3.98438 68H64.0156C66.2127 68 68 66.2127 68 64.0156V14.6094C68 13.8758 67.4055 13.2812 66.6719 13.2812H57.375C57.375 5.95789 51.4171 0 44.0938 0C36.7548 0 30.8125 5.93661 30.8125 13.2812H20.7188C19.9852 13.2812 19.3906 13.8758 19.3906 14.6094V30.0156H1.32812C0.594543 30.0156 0 30.6102 0 31.3438V64.0156C0 66.2127 1.78726 68 3.98438 68ZM2.65625 64.0156V59.2344H33.4688V64.0156C33.4688 64.7482 32.8732 65.3438 32.1406 65.3438H3.98438C3.25183 65.3438 2.65625 64.7482 2.65625 64.0156ZM64.0156 65.3438H35.8967C36.0441 64.9282 36.125 64.4815 36.125 64.0156V59.2344H65.3438V64.0156C65.3438 64.7482 64.7482 65.3438 64.0156 65.3438ZM44.0938 2.65625C49.9525 2.65625 54.7188 7.42245 54.7188 13.2812H33.4688C33.4688 7.40948 38.2184 2.65625 44.0938 2.65625ZM22.0469 15.9375H30.8125V22.0469H29.4844C28.7508 22.0469 28.1562 22.6414 28.1562 23.375C28.1562 24.1086 28.7508 24.7031 29.4844 24.7031H34.7969C35.5305 24.7031 36.125 24.1086 36.125 23.375C36.125 22.6414 35.5305 22.0469 34.7969 22.0469H33.4688V15.9375H54.7188V22.0469H53.3906C52.657 22.0469 52.0625 22.6414 52.0625 23.375C52.0625 24.1086 52.657 24.7031 53.3906 24.7031H58.7031C59.4367 24.7031 60.0312 24.1086 60.0312 23.375C60.0312 22.6414 59.4367 22.0469 58.7031 22.0469H57.375V15.9375H65.3438V56.5781H36.125V31.3438C36.125 30.6102 35.5305 30.0156 34.7969 30.0156H22.0469V15.9375ZM33.4688 32.6719V56.5781H2.65625V32.6719H33.4688Z" fill="#333333"/>
<path d="M10.0938 40.6406V43.2969C10.0938 47.6994 13.66 51.2656 18.0625 51.2656C22.4567 51.2656 26.0312 47.6911 26.0312 43.2969V40.6406C26.7648 40.6406 27.3594 40.0461 27.3594 39.3125C27.3594 38.5789 26.7648 37.9844 26.0312 37.9844H23.375C22.6414 37.9844 22.0469 38.5789 22.0469 39.3125C22.0469 40.0461 22.6414 40.6406 23.375 40.6406V43.2969C23.375 46.226 20.9916 48.6094 18.0625 48.6094C15.1282 48.6094 12.75 46.2312 12.75 43.2969V40.6406C13.4836 40.6406 14.0781 40.0461 14.0781 39.3125C14.0781 38.5789 13.4836 37.9844 12.75 37.9844H10.0938C9.36017 37.9844 8.76562 38.5789 8.76562 39.3125C8.76562 40.0461 9.36017 40.6406 10.0938 40.6406Z" fill="#525C8C"/>
<path d="M61.3594 45.9531C62.093 45.9531 62.6875 45.3586 62.6875 44.625V34C62.6875 33.2664 62.093 32.6719 61.3594 32.6719C60.6258 32.6719 60.0312 33.2664 60.0312 34V44.625C60.0312 45.3586 60.6258 45.9531 61.3594 45.9531Z" fill="#525C8C"/>
</svg>
