<svg width="70" height="70" viewBox="0 0 70 70" fill="none" xmlns="http://www.w3.org/2000/svg">
<path d="M62.2395 31.1243H60.0823L40.339 12.6385C41.3976 10.1994 40.6688 7.35343 38.5692 5.72372C36.469 4.0934 33.531 4.0934 31.4308 5.72372C29.3312 7.35343 28.6024 10.1994 29.661 12.6385L9.91772 31.1243H7.76053C3.47526 31.1255 0.00181888 34.599 0 38.8848V57.6653C0.00181888 61.9506 3.47526 65.424 7.76053 65.4259H62.2395C66.5247 65.424 69.9982 61.9506 70 57.6653V38.8848C69.9927 34.6014 66.5223 31.131 62.2395 31.1243ZM35 7.62505C36.5 7.62505 37.7162 8.84127 37.7162 10.3412C37.7162 11.8412 36.5 13.0574 35 13.0574C33.5 13.0574 32.2838 11.8412 32.2838 10.3412C32.2911 8.8443 33.5031 7.63232 35 7.62505ZM31.6163 15.06C33.6395 16.5084 36.3605 16.5084 38.3837 15.06L55.5345 31.1243H14.4504L31.6163 15.06ZM66.8958 57.6653C66.8885 60.2336 64.8077 62.3138 62.2395 62.3216H7.76053C5.19228 62.3138 3.11149 60.2336 3.10421 57.6653V38.8848C3.11149 36.316 5.19228 34.2358 7.76053 34.2285H62.2395C64.8077 34.2358 66.8885 36.316 66.8958 38.8848V57.6653Z" fill="#333333"/>
<path d="M15.5209 45.9626H37.4056C38.2629 45.9626 38.9577 45.2678 38.9577 44.4105C38.9577 43.5532 38.2629 42.8584 37.4056 42.8584H15.5209C14.6636 42.8584 13.9688 43.5532 13.9688 44.4105C13.9688 45.2678 14.6636 45.9626 15.5209 45.9626Z" fill="#525C8C"/>
<path d="M54.4787 50.6191H15.5209C14.6636 50.6191 13.9688 51.314 13.9688 52.1712C13.9688 53.0285 14.6636 53.7234 15.5209 53.7234H54.4787C55.336 53.7234 56.0308 53.0285 56.0308 52.1712C56.0308 51.314 55.336 50.6191 54.4787 50.6191Z" fill="#525C8C"/>
</svg>
