<svg width="81" height="81" viewBox="0 0 81 81" fill="none" xmlns="http://www.w3.org/2000/svg">
<path d="M71.4634 37.5355C68.7071 36.1576 63.5394 36.1416 63.3208 36.1416C62.6655 36.1416 62.1343 36.6728 62.1343 37.3281C62.1343 37.9834 62.6655 38.5146 63.3208 38.5146C64.6543 38.5148 68.526 38.7202 70.4021 39.6581C70.5725 39.7434 70.7535 39.7836 70.9318 39.7836C71.367 39.7836 71.7861 39.5431 71.994 39.1275C72.2871 38.5414 72.0495 37.8287 71.4634 37.5355Z" fill="#525C8C"/>
<path d="M77.379 54.4277L72.4787 53.0276C72.2672 52.9672 72.1194 52.7713 72.1194 52.5512V50.9156C72.5181 50.6394 72.8984 50.3302 73.2539 49.9852C74.9767 48.3133 75.9255 46.0708 75.9255 43.6705V41.4134L76.3993 40.4659C76.9193 39.4258 77.1941 38.2612 77.1941 37.0984V30.9839C77.1941 30.3286 76.6629 29.7974 76.0076 29.7974H64.5896C60.4377 29.7974 57.0598 33.1753 57.0598 37.3272V37.3979C57.0598 38.3648 57.2884 39.3332 57.7207 40.1979L58.3284 41.4133V43.3513C58.3284 46.4226 59.8419 49.1784 62.1344 50.8366L62.1348 52.5509C62.1348 52.8153 62.1348 52.9248 61.155 53.2048L58.7639 53.8879L51.8471 51.3728C51.872 51.0464 51.7618 50.7145 51.5238 50.4644L49.3135 48.1423V44.2442C49.5472 44.0516 49.7775 43.8539 50.0007 43.6447C52.7891 41.0312 54.3882 37.3413 54.3882 33.5211V30.408C55.2301 28.5759 55.6568 26.6371 55.6568 24.6404V11.9541C55.6568 11.2988 55.1256 10.7676 54.4703 10.7676H36.709C30.4584 10.7676 25.3733 15.8529 25.3733 22.1033V24.6407C25.3733 26.6374 25.7999 28.5762 26.6419 30.4083V33.0869C26.6419 37.5223 28.614 41.5182 31.7166 44.1526V48.1424L29.5063 50.4645C29.2682 50.7147 29.1581 51.0466 29.1829 51.3729L21.8827 54.0274C21.3536 54.2198 20.8621 54.4804 20.4158 54.796L19.2695 54.2228C22.6819 52.7374 23.7629 50.6484 23.8148 50.5446C23.9819 50.2106 23.9819 49.8173 23.8148 49.4834C22.9594 47.7726 22.8558 44.6368 22.7726 42.1173C22.7449 41.2785 22.7186 40.486 22.6685 39.7804C22.2639 34.0893 17.9374 29.7974 12.6044 29.7974C7.27133 29.7974 2.94463 34.0891 2.54027 39.7804C2.49012 40.4862 2.46386 41.2786 2.43617 42.1176C2.35296 44.637 2.24917 47.7724 1.39393 49.4832C1.22687 49.8172 1.22687 50.2105 1.39393 50.5444C1.44582 50.6482 2.52461 52.733 5.94385 54.2201L2.7597 55.8121C1.05743 56.6639 0 58.3749 0 60.2779V69.0438C0 69.699 0.531246 70.2303 1.18652 70.2303C1.8418 70.2303 2.37305 69.699 2.37305 69.0438V60.2779C2.37305 59.2793 2.92787 58.3815 3.82092 57.9349L7.78597 55.9524L9.16518 57.2632C10.1296 58.1796 11.3667 58.6376 12.6044 58.6376C13.8417 58.6376 15.0794 58.1793 16.0435 57.2632L17.4226 55.9526L18.7154 56.599C18.1067 57.5731 17.7611 58.7153 17.7611 59.9118V69.0441C17.7611 69.6994 18.2924 70.2306 18.9477 70.2306C19.6029 70.2306 20.1342 69.6994 20.1342 69.0441V59.9118C20.1342 58.2829 21.1627 56.8145 22.6936 56.2578L30.3905 53.459L33.5946 58.2654C34.0042 58.8798 34.6606 59.2739 35.3954 59.3467C35.4774 59.3548 35.5588 59.3587 35.6402 59.3587C36.2885 59.3587 36.9094 59.1035 37.3736 58.6395L39.3283 56.6848V69.0442C39.3283 69.6995 39.8596 70.2308 40.5149 70.2308C41.1701 70.2308 41.7014 69.6995 41.7014 69.0442V56.6848L43.6562 58.6395C44.1202 59.1037 44.7411 59.3589 45.3896 59.3589C45.4707 59.3589 45.5524 59.3549 45.6342 59.3469C46.3692 59.2741 47.0256 58.88 47.4352 58.2655L50.6394 53.4593L58.3361 56.2581C59.8669 56.8148 60.8955 58.2833 60.8955 59.9121V69.0444C60.8955 69.6997 61.4268 70.2309 62.0821 70.2309C62.7374 70.2309 63.2686 69.6997 63.2686 69.0444V59.9121C63.2686 58.2624 62.6132 56.7151 61.5136 55.5709L61.8068 55.4872C62.1025 55.4027 62.5059 55.287 62.9109 55.0885L65.9403 58.1179V69.0444C65.9403 69.6997 66.4716 70.2309 67.1269 70.2309C67.7821 70.2309 68.3134 69.6997 68.3134 69.0444V58.1179L71.3218 55.1095C71.4817 55.1909 71.6497 55.2595 71.8266 55.31L76.7271 56.7101C77.8456 57.0297 78.627 58.0654 78.627 59.2288V69.0444C78.627 69.6997 79.1582 70.2309 79.8135 70.2309C80.4688 70.2309 81 69.6997 81 69.0444V59.2288C81 57.0111 79.511 55.0369 77.379 54.4277ZM7.61194 52.332C5.39251 51.5334 4.27924 50.4687 3.80399 49.8873C4.12799 49.0402 4.33809 48.0701 4.48031 47.0461C5.13464 48.615 6.23051 49.9543 7.61194 50.9099V52.332ZM14.4091 55.5432C13.3971 56.5047 11.8118 56.5046 10.8001 55.543L9.69659 54.4945C9.88279 54.1456 9.98515 53.7501 9.98515 53.3358V52.0711C10.8129 52.3298 11.6928 52.4693 12.6047 52.4693C13.5155 52.4693 14.3949 52.3291 15.224 52.0719L15.2239 53.3356C15.2239 53.7501 15.3261 54.1458 15.5124 54.4948L14.4091 55.5432ZM12.605 50.0962C9.06188 50.0962 6.17957 47.2138 6.17957 43.6708C6.17957 43.0155 5.64833 42.4843 4.99305 42.4843C4.9266 42.4843 4.86174 42.4911 4.7983 42.5017C4.80178 42.3997 4.8051 42.2975 4.80858 42.1964C4.835 41.3805 4.86047 40.6099 4.90746 39.9489C5.05902 37.817 5.91094 35.8524 7.30629 34.4169C8.71414 32.9684 10.5958 32.1707 12.6047 32.1707C14.6135 32.1707 16.495 32.9684 17.9031 34.4169C19.2984 35.8524 20.1503 37.817 20.3019 39.9489C20.3487 40.6098 20.3743 41.3802 20.4012 42.1959C20.4036 42.266 20.406 42.337 20.4084 42.4076C19.1174 40.4186 17.1237 38.9529 14.5477 38.1252C12.1679 37.3606 10.121 37.4079 10.0347 37.4101C9.72396 37.4188 9.42906 37.5488 9.21343 37.7725L7.07263 39.9928C6.61779 40.4645 6.6314 41.2157 7.10316 41.6705C7.57492 42.1253 8.32607 42.1116 8.78091 41.64L10.5623 39.7926C12.0964 39.8676 17.0318 40.4416 18.9513 44.6683C18.4683 47.783 15.7912 50.0962 12.605 50.0962ZM17.5968 52.3359L17.5969 50.9208C18.9773 49.9705 20.0747 48.6337 20.7295 47.0529C20.8717 48.0746 21.0817 49.0424 21.405 49.8876C20.9325 50.4634 19.814 51.5376 17.5968 52.3359ZM29.0149 33.0867V30.1429C29.0149 29.9643 28.9746 29.7879 28.8969 29.627C28.1334 28.0459 27.7463 26.3683 27.7463 24.6407V22.1035C27.7463 17.1614 31.767 13.1408 36.709 13.1408H53.2838V24.6409C53.2838 26.3685 52.8966 28.046 52.1331 29.6271C52.0555 29.788 52.0151 29.9644 52.0151 30.143V33.5215C52.0151 36.7347 50.7234 39.7151 48.3779 41.9137C48.085 42.188 47.7811 42.4452 47.4669 42.6849C47.46 42.6896 47.4533 42.6949 47.4465 42.6998C45.2493 44.368 42.5579 45.1788 39.7473 44.9967C33.7291 44.6071 29.0149 39.3756 29.0149 33.0867ZM35.6957 56.9613C35.6875 56.9695 35.6683 56.989 35.6296 56.9849C35.591 56.9811 35.5758 56.9585 35.5693 56.9487L31.8792 51.4134L33.0667 50.1657L38.6647 53.9922L35.6957 56.9613ZM40.515 52.3824L34.0896 47.9904V45.7756C35.7522 46.6743 37.6137 47.2364 39.5937 47.3645C39.9064 47.3848 40.2173 47.3948 40.5272 47.3948C42.796 47.3948 44.9795 46.8524 46.9404 45.823V47.9904L40.515 52.3824ZM45.4608 56.949C45.4543 56.9588 45.4391 56.9814 45.4005 56.9852C45.3617 56.9901 45.3428 56.9697 45.3344 56.9616L42.3654 53.9926L47.9634 50.166L49.151 51.4138L45.4608 56.949ZM67.1269 55.9479L64.4342 53.2554C64.4812 53.042 64.5078 52.8083 64.5076 52.5506L64.5075 52.0499C65.2547 52.2951 66.0422 52.4407 66.8571 52.465C66.9486 52.4679 67.0392 52.4691 67.1303 52.4691C68.0308 52.4691 68.9098 52.3331 69.7464 52.0735V52.5512C69.7464 52.7879 69.7761 53.0198 69.8321 53.2427L67.1269 55.9479ZM71.6013 48.2823C70.3438 49.5027 68.6825 50.1472 66.9285 50.0931C63.4948 49.9901 60.7014 46.9657 60.7014 43.3516V41.1334C60.7014 40.9491 60.6586 40.7675 60.5761 40.6028L59.8432 39.1369C59.5747 38.5998 59.4328 37.9986 59.4328 37.3981V37.3274C59.4328 34.4838 61.7462 32.1706 64.5896 32.1706H74.8211V37.0986C74.8211 37.895 74.6328 38.6925 74.2767 39.4049L73.6777 40.6028C73.5953 40.7676 73.5524 40.9491 73.5524 41.1334V43.6707C73.5524 45.4236 72.8595 47.0613 71.6013 48.2823Z" fill="#333333"/>
<path d="M74.7388 60.2451C74.0835 60.2451 73.5522 60.7764 73.5522 61.4316V69.0436C73.5522 69.6989 74.0835 70.2301 74.7388 70.2301C75.394 70.2301 75.9253 69.6989 75.9253 69.0436V61.4316C75.9253 60.7765 75.394 60.2451 74.7388 60.2451Z" fill="#525C8C"/>
<path d="M6.26123 61.8145C5.60595 61.8145 5.07471 62.3457 5.07471 63.001V69.0445C5.07471 69.6998 5.60595 70.231 6.26123 70.231C6.91651 70.231 7.44775 69.6998 7.44775 69.0445V63.001C7.44775 62.3459 6.91651 61.8145 6.26123 61.8145Z" fill="#525C8C"/>
<path d="M50.2346 25.0714C45.747 20.5838 36.3578 21.4418 32.5289 22.0189C31.3229 22.2007 30.4478 23.2212 30.4478 24.4456V27.179C30.4478 27.8343 30.979 28.3655 31.6343 28.3655C32.2896 28.3655 32.8208 27.8343 32.8208 27.179V24.4454C32.8208 24.4051 32.8474 24.3706 32.8828 24.3652C34.4122 24.1347 37.447 23.7791 40.5913 23.9887C44.2913 24.235 46.9713 25.1638 48.5566 26.7493C49.02 27.2127 49.7713 27.2127 50.2346 26.7493C50.6979 26.2859 50.6979 25.5346 50.2346 25.0714Z" fill="#525C8C"/>
<path d="M26.5601 62.7842C25.9048 62.7842 25.3735 63.3154 25.3735 63.9707V69.0454C25.3735 69.7007 25.9048 70.2319 26.5601 70.2319C27.2153 70.2319 27.7466 69.7007 27.7466 69.0454V63.9707C27.7466 63.3156 27.2153 62.7842 26.5601 62.7842Z" fill="#525C8C"/>
<path d="M54.4702 62.7842C53.8149 62.7842 53.2837 63.3154 53.2837 63.9707V69.0454C53.2837 69.7007 53.8149 70.2319 54.4702 70.2319C55.1255 70.2319 55.6567 69.7007 55.6567 69.0454V63.9707C55.6567 63.3156 55.1255 62.7842 54.4702 62.7842Z" fill="#525C8C"/>
</svg>
